<?xml version="1.0" encoding="UTF-8"?>
<svg xmlns="http://www.w3.org/2000/svg" viewBox="0 0 182.14 57.09">
  <defs>
    <style>
      .cls-1 {
        fill: #b7b7b7;
      }

      .cls-2 {
        opacity: .7;
      }

      .cls-2, .cls-3, .cls-4, .cls-5, .cls-6 {
        fill: #99b0a7;
      }

      .cls-2, .cls-4, .cls-6, .cls-7 {
        mix-blend-mode: multiply;
      }

      .cls-8 {
        fill: #fff;
      }

      .cls-9 {
        fill: #8b8b8b;
      }

      .cls-10 {
        fill: #c5c5c5;
      }

      .cls-11 {
        fill: #003a32;
      }

      .cls-12 {
        fill: #f9f8f7;
      }

      .cls-13 {
        fill: #e2e2e2;
      }

      .cls-14 {
        fill: #c3fcf2;
      }

      .cls-15 {
        isolation: isolate;
      }

      .cls-3 {
        opacity: .5;
      }

      .cls-4 {
        opacity: .4;
      }

      .cls-16 {
        fill: #d4d4d4;
      }

      .cls-17 {
        fill: #7d7d7d;
      }

      .cls-18 {
        fill: #4f4538;
      }

      .cls-6 {
        opacity: .6;
      }

      .cls-19 {
        fill: #9a9a9a;
      }

      .cls-20 {
        fill: #606060;
      }

      .cls-21 {
        fill: #f1f1f1;
      }

      .cls-22 {
        fill: #a8a8a8;
      }

      .cls-23 {
        fill: #6e6e6e;
      }

      .cls-24 {
        fill: #005248;
      }
    </style>
  </defs>
  <g class="cls-15">
    <g id="Camada_2" data-name="Camada 2">
      <g id="Camada_1-2" data-name="Camada 1">
        <g>
          <path class="cls-14" d="M10.06,21.51c.12-.04,.24-.07,.36-.11-.1-.01-.2-.03-.3-.04-.08,.04-.16,.07-.22,.12,.05,.01,.1,.02,.16,.03Z"/>
          <path class="cls-14" d="M5.45,22.57c-.4-.11-.79-.22-1.36-.19-.14,.06-.21,.09-.24,.11,.21,.06,.5,.15,.78,.24,.56,.17,.85,.04,.82-.16Z"/>
          <path class="cls-14" d="M3.84,22.48c-.2-.06-.33-.1-.33-.1,.08,.05,.15,.09,.22,.13,.06,0,.06-.01,.06-.01,0,0,0,0,.04-.02Z"/>
          <path class="cls-14" d="M112.13,19.93c7.67,.3,15.37,.49,23.07,.64,.26,0,.48-.06,.49-.15,.01-.08-.19-.15-.43-.15-7.7-.16-15.37-.36-23.04-.65-.26,0-.47,.06-.51,.14-.01,.09,.17,.16,.41,.17Z"/>
          <path class="cls-14" d="M169.6,28.49c-.18,.07-.18,.16,.01,.22,.16,.05,.45,.06,.63,0,.15-.06,.15-.16-.01-.22-.19-.06-.48-.05-.63,0Z"/>
          <path class="cls-14" d="M172.29,41.18c-5.55-.24-11.13-.46-16.73-.64,.39-.07,.78-.15,1.17-.22,.39-.03,.78-.06,1.17-.08,3.6-.02,7.19-.07,10.8-.16,1.35,.02,2.46-.34,2.53-.81,.02-.46-.98-.83-2.28-.86,.21-.03,.42-.06,.63-.08,.21-.02,.36-.11,.31-.18-.08-.08-.35-.13-.56-.11-.76,.11-1.5,.22-2.25,.33-6.85-.17-13.72-.12-20.58-.03,7.39-.54,14.87-.91,22.41-1.06-.15,.06-.17,.15,.02,.22,.16,.05,.48,.05,.63,0,.18-.06,.15-.16-.01-.22,0,0,0,0-.02,0,4.05-.07,8.1-.08,12.17-.02,.24,0,.44-.07,.44-.16,0-.09-.22-.16-.49-.16-13.48-.21-26.86,.38-39.92,1.46-.71,0-1.42,.02-2.14,.03,0,0,0,0,0,0-.22-.35-.7-.67-1.34-.92,4.63-.15,9.22-.34,13.84-.55,3.85,.03,7.69,.06,11.54,.08,.56,0,1.02-.14,1.03-.35,.02-.19-.44-.34-1.03-.35-.94-.01-1.89-.02-2.83-.03,.78-.24,1.29-.59,1.34-.97,.05-.37-.34-.71-1-.97,4.17-.35,8.29-.74,12.32-1.26,.24-.03,.36-.11,.28-.19-.08-.08-.33-.12-.56-.09-5.86,.22-11.64,.56-17.44,.82-4.58-.46-9.06-.95-14-1.13-7.21-.25-13.97,.23-20.73,.71-2.43-.12-4.85-.21-7.26-.27,.34-.18,.54-.39,.54-.62,0-.06-.03-.11-.05-.17,2.12,.03,4.24,.05,6.41,.08,20.05,.21,38.88-1.37,58.06-2.67,1.23-.05,2.11-.44,1.97-.86-.14-.42-1.28-.72-2.5-.67-9.2,0-17.68,.73-26.98,1.45-6.63,.51-12.45,.89-19.11,1.24-7.79,.41-15.04,.32-22.68,.31-.75-.07-1.5-.11-2.26-.09-.77,.02-1.53,.05-2.3,.07-5.98-.06-11.84-.33-17.68-.61,6.98-.26,13.95-.56,20.82-1.13,.49-.02,.82-.18,.77-.34-.09-.16-.53-.28-1.03-.26-9.57,.35-19.19,.49-28.78,.67-2.62-1.45-8.16-2.3-13.11-2.36-1.83-.03-3.52,.14-5.23,.37,.8,.06,1.58,.12,2.37,.18-2.35,.05-4.36,.42-6.35,.81-.17-.02-.35-.04-.53-.05-4.61-.8-9.99-.64-14.97-.99,.11,.19,.23,.37,.34,.55-.92-.14-1.46-.48-2.47-.58,.28,.14,.55,.27,.83,.41-.02,0-.04,0-.06,0-1.08-.3-2.38-.43-3.73-.45-3.06-.86-6.8-1.36-10.72-1.59-.51-.22-1.26-.38-2.15-.41-.38-.07-.81-.12-1.09-.21-2.44-.9-5.41-1.52-8.69-1.98,.63,.17,1.29,.34,1.92,.51-.95-.14-1.88-.29-2.94-.3,.11,.11,.25,.21,.36,.32-3.26-.78-7.74-.5-9.99,.61-2.26,1.11-1.47,2.64,1.8,3.42l.47,.12c-1.67,.17-3.12,.54-3.94,1.18-.44,.35-.05,.8,.04,1.21-.13,.59,1.18,1.11,2.93,1.15,.47,.01,.93-.02,1.34-.07,2.01,.22,4.07,.39,6.03,.66,.39,.07,.86,0,1.06-.13,.17-.14,0-.3-.39-.36-1.41-.28-2.78-.57-4.14-.87-.11,.03-.23,.07-.34,.1,.05-.05,.11-.09,.18-.14-.12-.03-.25-.05-.37-.08,.1-.03,.19-.05,.29-.08,.1,.01,.21,.03,.31,.04,.17-.08,.37-.14,.6-.2,2.44,.21,4.86,.44,7.14,.83,.13,.03-.09,.29,.15,.39,.12,.05,.25,.09,.38,.14-.41-.06-.84-.11-1.31-.14-1.75,.38-2.41,.52-2.87,.62,0,0,0,0,0,0,0,0,0,0-.14,.03-.21,.05-.4,.08-.66,.14,0,0,0,0,0,.02-.05,.01-.11,.03-.17,.04-.26-.02-.52-.04-.78-.05-.3-.02-.58,.02-.73,.11-.1-.07-.21-.13-.35-.2q-1.5-.13-3.03-.25s0,.07,.05,.16c-.06,0-.57,.08-1.17,.04q-.57,.01-2.01-.1l.69,.27-.61-.18,.16,.3-.28-.33-.26,.25s0,0-1.2-.72c-.09,.02-.32,.05-.88,.15,0,0-.16,.07-.27,.15q-.01,.09-.49,.4s-.01,.1,.04,.21q.15,.1,.18,.38s.17,.11,.41,.2c.23,.05,.29,.07,1.15,.24-.07,.05-.14,.1-.21,.15q-.17,.52,.9,1.72s.6,.33,1.56,.56q1.12,.11,2.42,.23s.28,.04,.77,.1c.36,.19,.44,.25,.71,.42,0,0,0,0,0,0-.25,.01-.49,.05-.69,.1-.58,.17-.66,.46-.17,.66-.64,.79-.26,1.51,.56,2.2-.25,.26-.36,.54-.33,.83-.95,.68-1.55,1.4-1.8,2.17l-.11,.67c.28,.57,1.08,1.1,2.26,1.5l.36,.16-.34,.55c1.52,1.47,4.53,2.65,6.39,4.06l1.4,.74c1.02,.6,2.63,1.04,4.52,1.25l2,.21c.42,.01,.84,.02,1.26,.02-2.12,.69-3.29,1.7-2.9,2.77,.67,1.76,5.4,3.01,10.57,2.77,13.79-.07,27.1-.19,41.19-.92,10.43-.53,19.9-1.25,30.13-1.25,9.78-.76,19.21-1.75,28.75-2.92,8.02-.98,14.16-2.95,21.25-4.45,.21-.04,.23-.14,.12-.21-.16-.07-.45-.08-.64-.03-11.25,1.31-22.59,2.44-34.66,2.71-1.38,.03-2.74,.03-4.09,.02-.15-.03-.31-.05-.49-.05-1.22-.09-2.45-.16-3.68-.23,.43,0,.85-.01,1.28-.02,.85,.01,1.57-.21,1.63-.51,0-.13-.12-.24-.31-.34,3.14-.31,6.2-.72,9.26-1.15,.91-.03,1.75-.14,2.48-.3,3.54,.22,7.08,.38,10.64,.58l.88,.09c1.17,.06,2.29-.12,2.85-.47,.18-.1,.29-.21,.34-.32,8.1-.62,16.32-1.08,23.96-2.23,.39-.06,.59-.18,.53-.32,.14,.03,.33,.04,.5,0,.91-.23,1.93-.38,3.01-.5,.23-.05,.36-.13,.25-.2-.11-.09-.38-.12-.59-.09-1.1,.14-2.18,.3-3.16,.52-.11,.03-.18,.07-.19,.11-.22-.09-.57-.13-.91-.09-7.9,.39-15.55,1.26-23.52,1.45,3.9-.53,7.89-.9,12.09-1.3,5.07-.48,9.73-1.17,14.84-1.44,.27,0,.44-.08,.42-.17-.03-.08-.25-.15-.51-.13-10.47,.41-19.64,2.42-30.45,2.42-.43,0-.85,0-1.27-.02,3.33-.7,6.61-1.41,9.87-2.12,9.94-.3,19.84-.74,29.62-1.4,.48,0,.86-.14,.85-.31,0-.16-.42-.3-.89-.29ZM5.89,33.8c.13,.04,.23,.1,.39,.19,0,0,0,0-.39-.19Zm24.08-.36c-1.98-.12-3.99-.21-6.06-.26-.77-.02-1.53,.01-2.25,.09-.81-.44-1.67-.87-2.78-1.21,1.85,.26,3.96,.37,5.9,.54,2.16,.2,4.27,.38,6.39,.55-.25,.02-.49,.04-.74,.06-.24,.03-.72,0-.46,.23Zm4.42-4.49c.38,.16,.76,.32,1.14,.49-.05,0-.11,0-.16,0-.5-.07-1.01-.13-1.51-.21,.09,.05,.18,.09,.28,.13-1.95-.11-3.89-.23-5.82-.37-2.79-.43-5.78-.73-8.81-.85,.88-.18,1.71-.38,2.48-.6,3.86,.47,7.56,1.1,11.6,1.28,.27,.04,.53,.09,.79,.14Zm-19.52,8.07h0c-.15-.1-.33-.22-.55-.37,0,0,.24,.16,.56,.37Zm-6.61,7.28l-.1-.07,1.18-1.68-1.08,1.75Z"/>
        </g>
        <g>
          <g class="cls-7">
            <path class="cls-8" d="M141.5,14.71c-.1-.07-.21-.13-.33-.17-.54-.35-1.06-.72-1.61-1.12-.8-.57-1.62-1.17-2.53-1.69-1.29-.75-3.27-1.79-5.5-2.25-.2-.04-.41-.08-.62-.1,.23-.47,.41-.93,.55-1.38,.11-.37,.21-.73,.3-1.09,.2-.76,.39-1.47,.72-2.14,.06-.13,.13-.26,.19-.39,.19-.39,.35-.73,.6-1.03,.04-.05,.08-.09,.12-.14,.24-.25,.31-.58,.18-.88-.17-.4-.57-.68-1.19-.84-.09-.02-.18-.04-.27-.04-.26-.01-.52,0-.8,.01-.51,.04-1.01,.13-1.38,.21-1,.21-1.81,.44-2.54,.73-1.58,.63-3.05,1.68-4.24,3.02-1.18,1.33-1.85,2.86-2.4,4.31-.31,.81-.56,1.61-.79,2.37-.11,.36-.23,.76-.4,1.14-.06,.14-.13,.27-.19,.37-.09,.04-.17,.08-.26,.12-.56,.26-1.19,.45-1.86,.65-.06,.02-.11,.03-.17,.05-.15,0-.26,0-.38,.02h-.08s-.02,0-.03,0c-.41,.03-.78,.1-1.15,.16l-.21,.04c-.79,.13-1.66,.21-2.83,.24-1.96,.06-3.96-.16-5.66-.39-.21-.03-.43-.06-.65-.08-1.62-.2-3.29-.42-4.64-1l-.13-.06c-.4-.18-1-.45-1.71-.39-.3,.02-.58,.1-.84,.23-.13,.06-.77,.4-1.14,.82-.83-.37-1.6-.7-2.32-1.01-2.08-.87-4.25-1.63-6.34-2.37l-.11-.04c-1.18-.42-2.26-.73-3.31-.95-.32-.07-.63-.13-.93-.18-.25-.05-.5-.09-.74-.14l-.72-.15c-.06-.01-.12-.02-.2-.03-.16-.04-.37-.09-.59-.13-.04,0-.09-.01-.13-.02-.11-.03-.23-.05-.35-.05-.02,0-.04,0-.06,0-.19-.06-.37-.12-.56-.18-.17-.05-.33-.1-.5-.15-.11-.05-.21-.09-.32-.13-.4-.15-.84-.27-1.33-.36-.7-.25-1.31-.43-1.89-.55-.04,0-.08-.02-.12-.03-.07-.02-.15-.03-.24-.05-.19-.06-.39-.08-.59-.06-.02,0-.04,0-.06,0-.24-.11-.53-.14-.81-.09-.44,.08-.73,.3-.88,.42h-.02c-.1,.09-.19,.17-.27,.26-.4-.09-.79-.16-1.17-.24-.14-.03-.27-.05-.41-.08-1.41-.27-2.6-.43-3.7-.47-.43-.23-.85-.27-1.14-.26-1.01,.04-1.87,.51-2.43,1.32-.58,.84-.32,1.67-.15,2.22,.2,.62,.25,1.31,.16,2.05-.04,.36-.22,.77-.4,1.2-.39,.92-.83,1.97-.33,3.08,.28,.61,.79,1.07,1.5,1.33,.04,.05,.07,.09,.11,.13l.04,.04c.41,.51,.87,1.03,1.46,1.63,.83,.86,1.84,1.74,3.18,2.77,.85,.65,1.78,1.27,2.77,1.83,.29,.19,.63,.41,.95,.65,.15,.11,.32,.22,.54,.34,.16,.11,.31,.22,.47,.32,.49,.32,1.01,.58,1.51,.83,.17,.08,.33,.17,.49,.25,.13,.07,.25,.13,.38,.2,.29,.15,.6,.31,.91,.47,.02,.18,.02,.36,.03,.51,0,.07,0,.13,0,.19,0,.08,0,.17,0,.25v.12c0,.05,0,.11,0,.16v.37c-.01,.06-.01,.13-.01,.19v.14c0,.07,0,.13,0,.2,0,.05,0,.09,0,.14,0,.08,.02,.15,.03,.23v.02s.01,.07,.02,.1c.02,.13,.05,.25,.09,.36,0,0,0,.02,0,.03,.04,.13,.09,.26,.15,.38,.37,.79,1.29,1.25,2.34,1.18,.2-.02,.4-.05,.61-.1,.08-.02,.14-.04,.2-.06,.02,0,.05-.01,.07-.02,.03-.01,.07-.03,.1-.04,.06-.02,.11-.05,.17-.08,.05-.03,.11-.05,.15-.08,.06-.03,.12-.07,.18-.11,.05-.03,.09-.06,.14-.1,.05-.04,.1-.08,.15-.12,.04-.04,.08-.08,.13-.12,.04-.04,.08-.08,.12-.12,.04-.04,.07-.09,.11-.13,0,0,.01-.02,.01-.02,.03-.03,.05-.07,.08-.11,.03-.05,.06-.1,.1-.16,.02-.03,.04-.07,.06-.1,.03-.06,.06-.12,.09-.19,.01-.03,.02-.05,.04-.08,.04-.09,.07-.19,.09-.28,.05-.2,.07-.41,.07-.61,.22,.06,.43,.13,.65,.19,1.25,.37,2.54,.75,3.89,1.01,.78,.15,1.59,.28,2.43,.37-.03,.03-.07,.06-.11,.08-.03,.02-.05,.04-.07,.06-.05,.04-.09,.08-.13,.12-.03,.02-.05,.05-.08,.07-.04,.04-.08,.08-.12,.12,0,0-.02,.02-.02,.02-.02,.02-.04,.04-.05,.06-.05,.05-.09,.11-.13,.16-.02,.02-.04,.05-.05,.06-.06,.08-.11,.16-.15,.24-.01,.02-.03,.05-.04,.07-.03,.06-.06,.13-.09,.19-.01,.03-.02,.07-.04,.1-.02,.06-.04,.13-.05,.19,0,.04-.01,.07-.02,.1,0,.04-.01,.07-.02,.11,0,.04,0,.07,0,.11,0,.27,.05,.52,.16,.77,.06,.12,.13,.24,.21,.33,.08,.09,.17,.18,.27,.26,.01,.01,.03,.02,.04,.03,.1,.08,.22,.14,.35,.19,.01,0,.02,.01,.03,.01,0,0,.02,0,.03,.01,.12,.05,.26,.08,.37,.1,.02,0,.06,0,.08,.01,.12,.01,.24,.02,.36,.01,.01,0,.05,0,.06,0,.1,0,.21-.02,.32-.04,0,0,.03,0,.03,0,.09-.02,.19-.05,.27-.07,.01,0,.03-.01,.05-.02,.08-.03,.16-.06,.24-.09,0,0,.02,0,.03-.01,.14-.06,.29-.14,.43-.22,0,0,.01,0,.02,0,.06-.04,.13-.08,.19-.12,0,0,0,0,0,0,0,0,.01,0,.02-.01,.06-.04,.11-.08,.16-.11l.03-.02c.05-.04,.1-.07,.14-.11l.03-.02s.09-.07,.14-.11c0,0,.02-.02,.02-.02,.05-.04,.09-.07,.14-.11,.04-.03,.07-.07,.11-.1,0,0,0,0,.01-.01,.04-.03,.07-.06,.1-.09,.11-.11,.23-.23,.35-.35,.52-.52,1.05-1.06,1.64-1.43,.2-.08,.44-.18,.67-.31,.42-.01,.83-.03,1.23-.05,.43-.02,.85-.06,1.31-.11,.53,.15,1.04,.36,1.45,.54,.21,.09,.42,.2,.64,.3,.75,.36,1.61,.78,2.63,.93,.06,0,.12,.02,.19,.02h.03c.06,0,.12,.01,.18,.02,0,0,.01,0,.02,0,.07,0,.13,0,.21,0,.17,0,.35,0,.52-.02,1.75-.13,2.16-.96,2.26-1.32,.26-.96-.34-1.59-.99-1.98,.25-.09,.5-.17,.74-.27,.68-.26,1.38-.56,2.07-.89,.17,.06,.34,.11,.51,.15,.93,.23,1.94,.13,2.95-.3,1.62-.68,2.93-1.77,4.08-2.74,.15-.12,.29-.24,.43-.36,1.28-1.06,2.35-2.38,3.16-3.93,.41-.78,.66-1.58,.85-2.26,.05-.19,.09-.37,.12-.57,.25-.35,.49-.72,.73-1.11,.2,.03,.44,.09,.63,.14,.14,.03,.28,.07,.4,.1,1.04,.23,1.91,.41,2.8,.56,1.67,.28,3.34,.31,4.95,.35,.26,0,.52,.01,.78,.02,.51,.01,1.05,0,1.59-.04h0c1.21-.09,2.51-.32,3.99-.7,.88-.23,1.75-.52,2.59-.87,.06-.02,.11-.05,.16-.08,.05-.03,.16-.08,.26-.12,.15-.06,.33-.13,.51-.23,.19-.11,.7-.39,.76-.93,.04-.33-.11-.64-.41-.89-.02-.01-.04-.03-.06-.04Z"/>
            <path class="cls-21" d="M141.35,14.58c-.1-.07-.21-.13-.33-.17-.54-.35-1.06-.72-1.61-1.12-.8-.57-1.62-1.17-2.53-1.69-1.29-.75-3.27-1.79-5.5-2.25-.2-.04-.41-.08-.62-.1,.23-.47,.41-.93,.55-1.38,.11-.37,.21-.73,.3-1.09,.2-.76,.39-1.47,.72-2.14,.07-.13,.13-.26,.19-.39,.19-.39,.35-.73,.6-1.03,.04-.05,.08-.09,.13-.14,.24-.25,.31-.58,.18-.88-.17-.4-.57-.68-1.19-.84-.09-.02-.18-.04-.27-.04-.26-.01-.52,0-.8,.01-.51,.04-1.01,.13-1.38,.21-1,.21-1.81,.44-2.54,.73-1.58,.63-3.05,1.68-4.24,3.02-1.18,1.33-1.85,2.86-2.4,4.31-.31,.81-.56,1.61-.79,2.37-.11,.36-.23,.76-.4,1.14-.06,.14-.13,.27-.19,.37-.09,.04-.17,.08-.26,.12-.56,.26-1.19,.45-1.86,.65-.06,.02-.11,.03-.17,.05-.15,0-.26,0-.38,.02h-.08s-.02,0-.03,0c-.41,.03-.78,.1-1.15,.16l-.21,.04c-.79,.13-1.66,.21-2.83,.24-1.96,.06-3.96-.16-5.66-.39-.21-.03-.43-.06-.65-.08-1.62-.2-3.29-.42-4.64-1l-.13-.06c-.4-.18-1-.45-1.71-.39-.3,.02-.58,.1-.84,.23-.13,.06-.77,.4-1.14,.82-.83-.37-1.6-.7-2.32-1.01-2.08-.88-4.25-1.63-6.34-2.37l-.11-.04c-1.18-.42-2.26-.73-3.31-.95-.32-.07-.63-.13-.93-.18-.25-.05-.5-.09-.74-.14l-.72-.15c-.06-.01-.12-.02-.2-.03-.16-.04-.37-.09-.59-.13-.04,0-.09-.01-.13-.02-.11-.03-.23-.05-.35-.05-.02,0-.04,0-.06-.01-.19-.06-.37-.12-.56-.18-.17-.05-.33-.1-.5-.15-.11-.05-.21-.09-.32-.13-.4-.15-.84-.27-1.33-.36-.7-.25-1.31-.42-1.89-.55-.04,0-.08-.02-.12-.03-.07-.02-.15-.03-.24-.05-.19-.06-.39-.08-.59-.06-.02,0-.04,0-.06,0-.24-.11-.53-.14-.81-.09-.44,.08-.73,.3-.88,.42h-.02c-.1,.09-.19,.17-.27,.26-.4-.09-.79-.16-1.17-.24-.14-.03-.27-.05-.41-.08-1.41-.27-2.6-.43-3.7-.47-.43-.23-.85-.27-1.14-.26-1.01,.04-1.87,.51-2.43,1.32-.58,.84-.32,1.67-.15,2.22,.2,.62,.25,1.31,.16,2.05-.04,.36-.22,.77-.4,1.2-.39,.92-.83,1.97-.33,3.08,.28,.61,.79,1.07,1.5,1.33,.04,.05,.07,.09,.11,.13l.04,.04c.41,.51,.87,1.03,1.46,1.63,.83,.86,1.84,1.74,3.18,2.77,.85,.65,1.78,1.27,2.77,1.83,.29,.19,.63,.41,.95,.65,.15,.11,.32,.22,.54,.34,.16,.11,.31,.22,.47,.32,.49,.32,1.01,.58,1.51,.83,.17,.08,.33,.16,.49,.25,.13,.07,.25,.13,.38,.2,.29,.15,.6,.31,.91,.47,.02,.18,.02,.36,.03,.51,0,.07,0,.13,0,.19,0,.08,0,.17,0,.25v.12c0,.05,0,.11,0,.16v.37c-.01,.06-.01,.13-.01,.19v.14c0,.07,0,.13,0,.2,0,.05,0,.09,0,.14,0,.08,.02,.15,.03,.23v.02s.01,.07,.02,.1c.02,.13,.05,.25,.09,.37,0,0,0,.02,0,.03,.04,.13,.09,.26,.15,.38,.37,.79,1.29,1.25,2.34,1.18,.2-.02,.4-.05,.61-.1,.08-.02,.14-.04,.2-.06,.02,0,.05-.01,.07-.02,.03-.01,.07-.03,.1-.04,.06-.02,.11-.05,.17-.08,.05-.03,.11-.05,.15-.08,.06-.04,.12-.07,.18-.11,.05-.03,.09-.06,.14-.1,.05-.04,.1-.08,.15-.12,.04-.04,.08-.07,.13-.12,.04-.04,.08-.08,.12-.12,.04-.04,.08-.09,.11-.13,0,0,.01-.02,.01-.02,.03-.04,.05-.07,.08-.11,.03-.05,.06-.1,.1-.16,.02-.03,.04-.07,.06-.1,.03-.06,.06-.12,.09-.19,.01-.03,.02-.05,.04-.08,.04-.09,.07-.19,.09-.28,.05-.2,.07-.41,.07-.61,.22,.06,.43,.13,.65,.19,1.25,.37,2.54,.75,3.89,1.01,.78,.15,1.59,.28,2.43,.37-.04,.03-.07,.06-.11,.08-.03,.02-.05,.04-.07,.06-.05,.04-.09,.08-.13,.12-.03,.02-.05,.05-.08,.07-.04,.04-.08,.08-.12,.12,0,0-.02,.02-.02,.02-.02,.02-.04,.04-.05,.06-.05,.05-.09,.11-.13,.16-.02,.02-.04,.05-.05,.07-.06,.08-.11,.16-.15,.24-.01,.02-.03,.05-.04,.07-.03,.06-.06,.13-.09,.19-.01,.03-.02,.07-.04,.1-.02,.06-.04,.13-.05,.19,0,.04-.01,.07-.02,.1,0,.04-.01,.07-.02,.11,0,.04,0,.07,0,.11,0,.27,.05,.52,.16,.77,.06,.12,.13,.24,.21,.34,.08,.09,.17,.18,.27,.26,.01,.01,.03,.02,.04,.03,.1,.08,.22,.14,.35,.19,.01,0,.02,.01,.03,.01,0,0,.02,0,.03,.01,.12,.05,.26,.08,.37,.1,.02,0,.06,0,.08,.01,.12,.01,.24,.02,.36,.01,.01,0,.05,0,.06,0,.1,0,.21-.02,.32-.04,0,0,.03,0,.03,0,.09-.02,.19-.05,.26-.07,.01,0,.03-.01,.05-.02,.08-.03,.16-.06,.24-.09,0,0,.02,0,.03-.01,.14-.06,.29-.14,.43-.22,0,0,.01,0,.02,0,.07-.04,.13-.08,.19-.12,0,0,0,0,0,0,0,0,.01,0,.02-.01,.06-.04,.11-.08,.16-.11l.03-.02c.05-.04,.1-.07,.14-.11l.03-.02s.09-.07,.14-.11c0,0,.02-.02,.02-.02,.05-.04,.09-.07,.14-.12,.04-.03,.08-.07,.11-.1,0,0,0,0,.01-.01,.03-.03,.07-.06,.1-.09,.11-.11,.23-.23,.35-.35,.52-.52,1.05-1.06,1.64-1.43,.2-.08,.44-.18,.67-.31,.42-.01,.83-.03,1.23-.05,.43-.02,.85-.06,1.31-.11,.53,.15,1.04,.36,1.45,.54,.21,.1,.42,.2,.63,.3,.75,.36,1.61,.78,2.63,.93,.06,0,.12,.02,.19,.02h.03c.06,0,.12,.01,.18,.02,0,0,.01,0,.02,0,.07,0,.13,0,.21,0,.17,0,.35,0,.52-.02,1.75-.13,2.16-.96,2.26-1.32,.26-.96-.34-1.59-.99-1.98,.25-.09,.5-.17,.74-.27,.68-.26,1.38-.56,2.07-.89,.17,.06,.34,.11,.51,.15,.93,.23,1.94,.13,2.95-.3,1.62-.68,2.93-1.77,4.08-2.74,.15-.12,.29-.24,.43-.36,1.28-1.06,2.35-2.38,3.16-3.93,.41-.78,.66-1.58,.85-2.26,.05-.19,.09-.37,.12-.57,.25-.35,.49-.72,.73-1.11,.2,.03,.44,.09,.63,.14,.14,.03,.27,.07,.4,.1,1.04,.23,1.91,.41,2.8,.56,1.67,.28,3.34,.31,4.95,.35,.26,0,.52,.01,.78,.02,.51,.01,1.05,0,1.59-.04h0c1.21-.09,2.52-.32,3.99-.7,.88-.23,1.75-.52,2.59-.87,.06-.02,.11-.05,.16-.08,.05-.03,.16-.08,.26-.12,.15-.06,.33-.13,.51-.23,.19-.11,.7-.39,.76-.93,.04-.33-.1-.64-.41-.89-.02-.01-.04-.03-.06-.04Z"/>
            <path class="cls-13" d="M141.21,14.45c-.1-.07-.21-.13-.33-.17-.54-.35-1.06-.72-1.61-1.12-.8-.57-1.62-1.17-2.53-1.69-1.29-.75-3.27-1.79-5.5-2.25-.2-.04-.41-.08-.62-.1,.23-.47,.41-.93,.55-1.38,.11-.37,.21-.73,.3-1.09,.2-.76,.39-1.47,.72-2.14,.06-.13,.13-.26,.19-.39,.19-.39,.35-.73,.6-1.03,.04-.05,.08-.09,.12-.14,.24-.25,.31-.58,.18-.88-.17-.4-.57-.69-1.19-.84-.09-.02-.18-.04-.27-.04-.26-.01-.52,0-.8,.01-.51,.04-1.01,.13-1.38,.21-1,.21-1.81,.44-2.54,.73-1.58,.63-3.05,1.68-4.24,3.02-1.18,1.33-1.85,2.86-2.4,4.31-.31,.81-.56,1.61-.79,2.37-.11,.36-.23,.76-.4,1.14-.06,.14-.13,.27-.19,.37-.09,.04-.17,.08-.26,.12-.56,.26-1.19,.45-1.86,.65-.06,.02-.11,.03-.17,.05-.15,0-.26,0-.38,.02h-.08s-.02,0-.03,0c-.41,.03-.78,.1-1.15,.16l-.22,.04c-.79,.13-1.66,.21-2.83,.24-1.96,.06-3.96-.16-5.66-.39-.21-.03-.43-.06-.65-.08-1.62-.2-3.29-.42-4.64-1l-.13-.06c-.4-.18-1-.45-1.71-.39-.3,.02-.58,.1-.84,.23-.13,.06-.77,.4-1.14,.82-.83-.37-1.6-.7-2.32-1.01-2.08-.87-4.25-1.63-6.34-2.37l-.11-.04c-1.18-.42-2.26-.73-3.31-.95-.32-.07-.63-.13-.93-.18-.25-.05-.5-.09-.74-.14l-.72-.15c-.06-.01-.12-.02-.2-.03-.16-.04-.37-.09-.59-.13-.04,0-.09-.01-.13-.02-.11-.03-.23-.05-.35-.05-.02,0-.04,0-.06-.01-.19-.06-.37-.12-.56-.18-.17-.05-.33-.1-.5-.15-.11-.05-.21-.09-.32-.13-.4-.15-.84-.27-1.33-.36-.7-.25-1.31-.43-1.89-.55-.04,0-.08-.02-.12-.03-.07-.02-.15-.03-.24-.05-.19-.06-.39-.08-.59-.06-.02,0-.04,0-.06,0-.24-.11-.53-.14-.81-.09-.44,.08-.72,.3-.88,.42h-.02c-.1,.09-.19,.17-.27,.26-.4-.09-.79-.16-1.17-.24-.14-.03-.27-.05-.41-.08-1.41-.27-2.6-.43-3.7-.47-.43-.23-.85-.27-1.14-.26-1.01,.04-1.87,.51-2.43,1.32-.58,.84-.32,1.67-.15,2.22,.2,.62,.25,1.31,.16,2.05-.04,.36-.22,.77-.4,1.2-.39,.92-.83,1.97-.33,3.08,.28,.61,.79,1.07,1.5,1.33,.04,.05,.07,.09,.11,.13l.04,.04c.41,.51,.87,1.03,1.46,1.63,.83,.86,1.84,1.74,3.18,2.77,.85,.65,1.78,1.27,2.77,1.83,.29,.19,.63,.41,.95,.65,.15,.11,.32,.22,.54,.34,.16,.11,.31,.22,.47,.32,.49,.32,1.01,.58,1.51,.83,.17,.08,.33,.16,.49,.25,.13,.07,.25,.13,.38,.2,.29,.15,.6,.31,.91,.47,.02,.18,.02,.36,.03,.51,0,.07,0,.13,0,.19,0,.08,0,.17,0,.25v.12c0,.05,0,.11,0,.16v.37c-.01,.06-.01,.13-.01,.19v.14c0,.07,0,.13,0,.2,0,.05,0,.09,0,.14,0,.08,.02,.15,.03,.23v.02s.01,.07,.02,.1c.03,.13,.05,.25,.09,.37,0,0,0,.02,0,.03,.04,.13,.09,.26,.15,.38,.37,.79,1.29,1.25,2.34,1.18,.2-.02,.4-.05,.61-.1,.08-.02,.14-.04,.2-.06,.02,0,.05-.01,.07-.02,.03-.01,.07-.03,.1-.04,.06-.02,.11-.05,.17-.08,.05-.03,.11-.05,.15-.08,.06-.04,.12-.07,.18-.11,.05-.03,.09-.06,.14-.1,.05-.04,.1-.08,.15-.12,.04-.04,.08-.07,.13-.12,.04-.04,.08-.08,.12-.12,.04-.04,.07-.09,.11-.13,0,0,.01-.02,.01-.02,.02-.04,.05-.07,.08-.11,.03-.05,.06-.1,.1-.16,.02-.03,.04-.07,.06-.1,.03-.06,.06-.12,.09-.19,.01-.03,.02-.05,.04-.08,.04-.09,.07-.19,.09-.28,.05-.2,.07-.41,.07-.61,.22,.06,.43,.13,.65,.19,1.25,.37,2.54,.75,3.89,1.01,.78,.15,1.59,.28,2.43,.37-.03,.03-.07,.06-.11,.08-.03,.02-.05,.04-.07,.06-.05,.04-.09,.08-.13,.12-.03,.02-.05,.05-.08,.07-.04,.04-.08,.08-.12,.12,0,0-.02,.02-.02,.02-.02,.02-.04,.04-.05,.06-.05,.05-.09,.11-.13,.16-.02,.02-.04,.05-.05,.06-.06,.08-.11,.16-.15,.24-.01,.02-.03,.05-.04,.07-.03,.06-.06,.13-.09,.19-.01,.03-.02,.07-.04,.1-.02,.06-.04,.13-.05,.19,0,.04-.01,.07-.02,.1,0,.03-.01,.07-.02,.11,0,.04,0,.07,0,.11,0,.27,.05,.52,.16,.77,.06,.12,.13,.24,.21,.34,.08,.09,.17,.18,.27,.26,.01,.01,.03,.02,.04,.03,.1,.08,.22,.14,.35,.19,.01,0,.02,.01,.03,.01,0,0,.02,0,.03,.01,.12,.05,.26,.08,.37,.1,.02,0,.06,0,.08,.01,.12,.01,.24,.02,.36,.01,.01,0,.05,0,.06,0,.1,0,.21-.02,.32-.04,0,0,.03,0,.03,0,.09-.02,.19-.05,.27-.07,.01,0,.03-.01,.05-.02,.08-.03,.16-.06,.24-.09,0,0,.02,0,.03-.01,.14-.06,.29-.14,.43-.22,0,0,.01,0,.02,0,.06-.04,.13-.08,.19-.12,0,0,0,0,0,0,0,0,.01,0,.02-.01,.06-.04,.11-.08,.16-.11l.03-.02c.05-.04,.1-.08,.14-.11l.03-.02s.09-.07,.14-.11c0,0,.02-.02,.02-.02,.05-.04,.09-.07,.14-.11,.04-.03,.07-.07,.11-.1,0,0,0,0,.01-.01,.03-.03,.07-.06,.1-.09,.11-.11,.23-.23,.35-.35,.52-.52,1.05-1.06,1.64-1.43,.2-.08,.44-.18,.67-.31,.42-.01,.83-.03,1.23-.05,.43-.02,.85-.06,1.31-.11,.53,.15,1.04,.36,1.45,.54,.21,.09,.42,.2,.63,.3,.75,.36,1.61,.78,2.63,.93,.06,0,.12,.02,.19,.02h.03c.06,0,.12,.01,.18,.02,0,0,.01,0,.02,0,.07,0,.13,0,.21,0,.17,0,.35,0,.52-.02,1.75-.13,2.16-.96,2.26-1.32,.26-.96-.34-1.59-.99-1.98,.25-.09,.5-.17,.74-.27,.68-.26,1.38-.56,2.07-.89,.17,.06,.34,.11,.51,.15,.93,.23,1.94,.13,2.95-.3,1.62-.68,2.92-1.77,4.08-2.74,.15-.12,.29-.24,.43-.36,1.28-1.06,2.35-2.38,3.16-3.93,.41-.78,.66-1.58,.85-2.26,.05-.19,.09-.37,.12-.57,.25-.35,.49-.72,.73-1.11,.2,.03,.44,.09,.63,.14,.14,.03,.28,.07,.4,.1,1.04,.23,1.91,.41,2.8,.56,1.67,.28,3.34,.31,4.95,.35,.26,0,.52,.01,.78,.02,.51,.01,1.05,0,1.59-.04h0c1.21-.09,2.51-.32,3.99-.7,.88-.23,1.75-.52,2.59-.87,.06-.02,.11-.05,.16-.08,.05-.03,.16-.08,.26-.12,.15-.06,.33-.13,.51-.23,.19-.11,.7-.39,.76-.93,.04-.33-.1-.64-.41-.89-.02-.01-.04-.03-.06-.04Z"/>
            <path class="cls-16" d="M141.06,14.31c-.1-.07-.21-.13-.33-.17-.54-.35-1.06-.72-1.61-1.12-.8-.57-1.62-1.17-2.53-1.69-1.29-.75-3.27-1.79-5.5-2.25-.2-.04-.41-.08-.62-.1,.23-.47,.41-.93,.55-1.38,.11-.37,.21-.73,.3-1.09,.2-.76,.39-1.47,.72-2.14,.07-.13,.13-.26,.19-.39,.19-.39,.35-.73,.6-1.03,.04-.05,.08-.09,.13-.14,.24-.25,.31-.58,.18-.88-.17-.4-.57-.69-1.19-.84-.09-.02-.18-.04-.27-.04-.26-.01-.52,0-.8,.01-.51,.04-1.01,.13-1.38,.21-1,.21-1.81,.44-2.54,.73-1.58,.63-3.05,1.68-4.24,3.02-1.18,1.33-1.85,2.86-2.4,4.31-.31,.81-.56,1.61-.79,2.37-.11,.36-.23,.76-.4,1.14-.06,.14-.13,.27-.19,.37-.09,.04-.17,.08-.26,.12-.56,.26-1.19,.45-1.86,.65-.06,.02-.11,.03-.17,.05-.15,0-.26,0-.38,.02h-.08s-.02,0-.03,0c-.41,.03-.78,.1-1.15,.16l-.22,.04c-.79,.13-1.66,.21-2.83,.24-1.96,.06-3.96-.16-5.66-.39-.21-.03-.43-.06-.65-.08-1.62-.2-3.29-.42-4.64-1l-.13-.06c-.4-.18-1-.45-1.71-.39-.3,.02-.58,.1-.84,.23-.13,.06-.77,.4-1.14,.82-.83-.37-1.6-.7-2.32-1.01-2.08-.88-4.25-1.64-6.34-2.37l-.11-.04c-1.18-.42-2.26-.73-3.31-.95-.32-.07-.63-.13-.93-.18-.25-.05-.5-.09-.74-.14l-.72-.15c-.06-.01-.12-.02-.2-.03-.16-.04-.37-.09-.59-.13-.04,0-.09-.01-.13-.02-.11-.03-.23-.05-.35-.05-.02,0-.04,0-.06,0-.19-.06-.37-.12-.56-.18-.17-.05-.33-.1-.5-.15-.11-.05-.21-.09-.32-.13-.4-.15-.84-.27-1.33-.36-.7-.25-1.31-.43-1.89-.55-.04,0-.08-.02-.12-.03-.07-.02-.15-.03-.24-.05-.19-.06-.39-.08-.59-.06-.02,0-.04,0-.06,0-.24-.11-.53-.14-.81-.09-.44,.08-.72,.3-.88,.42h-.02c-.1,.09-.19,.17-.27,.26-.4-.09-.79-.16-1.17-.24-.14-.03-.27-.05-.41-.08-1.41-.27-2.6-.43-3.7-.47-.43-.23-.85-.27-1.14-.26-1.01,.04-1.87,.51-2.43,1.32-.58,.84-.32,1.67-.15,2.22,.2,.62,.25,1.31,.16,2.05-.04,.36-.22,.77-.4,1.2-.39,.92-.83,1.97-.33,3.08,.28,.61,.79,1.07,1.5,1.33,.04,.05,.07,.09,.11,.13l.04,.04c.41,.51,.87,1.03,1.46,1.63,.83,.86,1.84,1.74,3.18,2.77,.85,.65,1.78,1.27,2.77,1.83,.29,.19,.63,.41,.95,.65,.15,.11,.32,.22,.54,.34,.16,.11,.31,.22,.47,.32,.49,.32,1.01,.58,1.51,.83,.17,.08,.33,.16,.49,.25,.13,.07,.25,.13,.38,.2,.29,.15,.6,.31,.91,.47,.02,.18,.02,.36,.03,.51,0,.07,0,.13,0,.19,0,.08,0,.17,0,.25v.12c0,.05,0,.11,0,.16v.37c-.01,.06-.01,.13-.01,.19v.14c0,.07,0,.13,0,.2,0,.05,0,.09,0,.14,0,.08,.02,.15,.03,.23v.02s.01,.07,.02,.1c.02,.13,.05,.25,.09,.37,0,0,0,.02,0,.03,.04,.13,.09,.26,.15,.38,.37,.79,1.29,1.25,2.34,1.18,.2-.02,.4-.05,.61-.1,.08-.02,.14-.04,.2-.06,.02,0,.05-.01,.07-.02,.03-.01,.07-.03,.1-.04,.06-.02,.11-.05,.17-.08,.05-.03,.11-.05,.15-.08,.06-.04,.12-.07,.18-.11,.05-.03,.09-.06,.14-.1,.05-.04,.1-.08,.15-.12,.04-.04,.08-.07,.13-.12,.04-.04,.08-.08,.12-.12,.04-.04,.08-.09,.11-.13,0,0,.01-.02,.01-.02,.03-.04,.05-.07,.08-.11,.03-.05,.06-.1,.1-.16,.02-.03,.04-.07,.06-.1,.03-.06,.06-.12,.09-.19,.01-.03,.02-.05,.04-.08,.04-.09,.07-.19,.09-.28,.05-.2,.07-.41,.07-.61,.22,.06,.43,.13,.65,.19,1.25,.37,2.54,.75,3.89,1.01,.78,.15,1.59,.28,2.43,.37-.03,.03-.07,.06-.11,.08-.03,.02-.05,.04-.07,.06-.05,.04-.09,.08-.13,.12-.03,.02-.05,.05-.08,.07-.04,.04-.08,.08-.12,.12,0,0-.02,.02-.02,.02-.02,.02-.04,.04-.05,.06-.05,.05-.09,.11-.13,.16-.02,.02-.04,.05-.05,.07-.06,.08-.11,.16-.15,.24-.01,.02-.03,.05-.04,.07-.03,.06-.06,.13-.09,.19-.01,.03-.02,.07-.04,.1-.02,.06-.04,.13-.05,.19,0,.04-.01,.07-.02,.1,0,.04-.01,.07-.02,.11,0,.04,0,.07,0,.11,0,.27,.05,.52,.16,.77,.06,.12,.13,.24,.21,.33,.08,.09,.17,.18,.27,.26,.01,.01,.03,.02,.04,.03,.1,.08,.22,.14,.35,.19,.01,0,.02,.01,.03,.01,0,0,.02,0,.03,.01,.12,.05,.26,.08,.37,.1,.02,0,.06,0,.08,.01,.12,.01,.24,.02,.36,.01,.01,0,.05,0,.06,0,.1,0,.21-.02,.32-.04,0,0,.03,0,.03,0,.09-.02,.19-.05,.26-.07,.01,0,.03-.01,.05-.02,.08-.03,.16-.06,.24-.09,0,0,.02,0,.03-.01,.14-.06,.29-.14,.43-.22,0,0,.01,0,.02,0,.07-.04,.13-.08,.19-.12,0,0,0,0,0,0,0,0,.01,0,.02-.01,.06-.04,.11-.08,.16-.11l.03-.02c.05-.04,.1-.07,.14-.11l.03-.02s.09-.07,.14-.11c0,0,.02-.02,.02-.02,.05-.04,.09-.07,.14-.11,.04-.03,.08-.07,.11-.1,0,0,0,0,.01-.01,.03-.03,.07-.06,.1-.09,.11-.11,.23-.23,.35-.35,.52-.52,1.05-1.06,1.64-1.43,.2-.08,.44-.18,.67-.31,.42-.01,.83-.03,1.23-.05,.43-.02,.85-.06,1.31-.11,.53,.15,1.04,.36,1.45,.54,.21,.1,.42,.2,.63,.3,.75,.36,1.61,.78,2.63,.93,.06,0,.12,.02,.19,.02h.03c.06,0,.12,.01,.18,.02,0,0,.01,0,.02,0,.07,0,.13,0,.21,0,.17,0,.35,0,.52-.02,1.75-.13,2.16-.96,2.26-1.32,.26-.96-.34-1.59-.99-1.98,.25-.09,.5-.17,.74-.27,.68-.26,1.38-.56,2.07-.89,.17,.06,.34,.11,.51,.15,.93,.23,1.94,.13,2.95-.3,1.62-.68,2.93-1.77,4.08-2.74,.15-.12,.29-.24,.43-.36,1.28-1.06,2.35-2.38,3.16-3.93,.41-.78,.66-1.58,.85-2.26,.05-.19,.09-.37,.12-.57,.25-.35,.49-.72,.73-1.11,.2,.03,.44,.09,.63,.14,.14,.03,.27,.07,.4,.1,1.04,.23,1.91,.41,2.8,.56,1.67,.28,3.34,.31,4.95,.35,.26,0,.52,.01,.78,.02,.51,.01,1.05,0,1.59-.04h0c1.21-.09,2.51-.32,3.99-.7,.88-.23,1.75-.52,2.59-.87,.06-.02,.11-.05,.16-.08,.05-.03,.16-.08,.26-.12,.15-.06,.33-.13,.51-.23,.19-.11,.7-.39,.76-.93,.04-.33-.1-.64-.41-.89-.02-.01-.04-.03-.06-.04Z"/>
            <path class="cls-10" d="M140.92,14.18c-.1-.07-.21-.13-.33-.17-.54-.35-1.06-.72-1.61-1.12-.8-.57-1.62-1.17-2.53-1.69-1.29-.75-3.27-1.79-5.5-2.25-.2-.04-.41-.08-.62-.1,.23-.47,.41-.93,.55-1.38,.11-.37,.21-.73,.3-1.09,.2-.76,.39-1.47,.72-2.14,.06-.13,.13-.26,.19-.39,.19-.39,.35-.73,.6-1.03,.04-.05,.08-.09,.12-.14,.24-.25,.31-.58,.18-.88-.17-.4-.57-.68-1.19-.84-.09-.02-.18-.04-.27-.04-.26-.01-.52,0-.8,.01-.51,.04-1.01,.13-1.38,.21-1,.21-1.81,.44-2.54,.73-1.58,.63-3.05,1.68-4.24,3.02-1.18,1.33-1.85,2.86-2.4,4.31-.31,.81-.56,1.61-.79,2.37-.11,.36-.23,.76-.4,1.14-.06,.14-.13,.27-.19,.37-.09,.04-.17,.08-.26,.12-.56,.26-1.19,.45-1.86,.65-.06,.02-.11,.03-.17,.05-.15,0-.26,0-.38,.02h-.08s-.02,0-.03,0c-.41,.03-.78,.1-1.15,.16l-.21,.04c-.79,.13-1.66,.21-2.83,.24-1.96,.06-3.96-.16-5.66-.39-.21-.03-.43-.06-.65-.08-1.62-.2-3.29-.42-4.64-1l-.13-.06c-.4-.18-1-.45-1.71-.39-.3,.02-.58,.1-.84,.23-.13,.06-.77,.4-1.14,.82-.83-.37-1.6-.7-2.32-1.01-2.08-.88-4.25-1.63-6.34-2.37l-.11-.04c-1.18-.42-2.26-.73-3.31-.95-.32-.07-.63-.13-.93-.18-.25-.05-.5-.09-.74-.14l-.72-.15c-.06-.01-.12-.02-.2-.03-.16-.04-.37-.09-.59-.13-.04,0-.09-.01-.13-.02-.11-.03-.23-.05-.35-.05-.02,0-.04,0-.06-.01-.19-.06-.37-.12-.56-.18-.17-.05-.33-.1-.5-.15-.11-.05-.21-.09-.32-.13-.4-.15-.84-.27-1.33-.36-.7-.25-1.31-.43-1.89-.55-.04,0-.08-.02-.12-.03-.07-.02-.15-.03-.24-.05-.18-.06-.39-.08-.59-.06-.02,0-.04,0-.06,0-.24-.11-.53-.14-.81-.09-.44,.08-.73,.3-.88,.42h-.02c-.1,.09-.19,.17-.27,.26-.4-.09-.79-.16-1.17-.24-.14-.03-.27-.05-.41-.08-1.41-.27-2.6-.43-3.7-.47-.43-.23-.85-.27-1.14-.26-1.01,.04-1.87,.51-2.43,1.32-.58,.84-.32,1.67-.15,2.22,.2,.62,.25,1.31,.16,2.05-.04,.36-.22,.77-.4,1.2-.39,.92-.83,1.97-.33,3.08,.28,.61,.79,1.07,1.5,1.33,.04,.05,.07,.09,.11,.13l.04,.04c.41,.51,.87,1.03,1.46,1.63,.83,.86,1.84,1.74,3.18,2.77,.85,.65,1.78,1.27,2.77,1.83,.29,.19,.63,.41,.95,.65,.15,.11,.32,.22,.54,.34,.16,.11,.31,.22,.47,.32,.49,.32,1.01,.58,1.51,.83,.17,.08,.33,.16,.49,.25,.13,.07,.25,.13,.38,.2,.29,.15,.6,.31,.91,.47,.02,.18,.02,.36,.03,.51,0,.07,0,.13,0,.19,0,.08,0,.17,0,.25v.12c0,.05,0,.11,0,.16v.37c-.01,.06-.01,.13-.01,.19v.14c0,.07,0,.13,0,.2,0,.04,0,.09,0,.14,0,.08,.02,.15,.03,.23v.02s.01,.07,.02,.1c.02,.13,.05,.25,.09,.36,0,0,0,.02,0,.03,.04,.13,.09,.26,.15,.38,.37,.79,1.29,1.25,2.34,1.18,.2-.02,.4-.05,.61-.1,.08-.02,.14-.04,.2-.06,.02,0,.05-.01,.07-.02,.03-.01,.07-.03,.1-.04,.06-.02,.11-.05,.17-.08,.05-.03,.11-.05,.15-.08,.06-.03,.12-.07,.18-.11,.05-.03,.09-.06,.14-.1,.05-.04,.1-.08,.15-.12,.04-.04,.08-.07,.12-.12,.04-.04,.08-.08,.12-.12,.04-.04,.08-.09,.11-.13,0,0,.01-.02,.01-.02,.03-.04,.05-.07,.08-.11,.03-.05,.06-.1,.1-.16,.02-.03,.04-.07,.06-.1,.03-.06,.06-.12,.09-.19,.01-.03,.02-.05,.04-.08,.04-.09,.07-.19,.09-.28,.05-.2,.07-.41,.07-.61,.22,.06,.43,.13,.65,.19,1.25,.37,2.54,.75,3.89,1.01,.78,.15,1.59,.28,2.43,.37-.03,.03-.07,.06-.11,.08-.03,.02-.05,.04-.07,.06-.05,.04-.09,.08-.13,.12-.03,.02-.05,.05-.08,.07-.04,.04-.08,.08-.12,.12,0,0-.02,.02-.02,.02-.02,.02-.04,.04-.05,.06-.05,.05-.09,.11-.13,.16-.02,.02-.04,.05-.05,.06-.06,.08-.11,.16-.15,.24-.01,.02-.03,.05-.04,.07-.03,.06-.06,.13-.09,.19-.01,.03-.02,.07-.04,.1-.02,.06-.04,.13-.05,.19,0,.04-.01,.07-.02,.1,0,.04-.01,.07-.02,.11,0,.04,0,.07,0,.11,0,.27,.05,.52,.16,.77,.06,.12,.13,.24,.21,.34,.08,.09,.17,.18,.27,.26,.01,.01,.03,.02,.04,.03,.1,.08,.22,.14,.35,.19,.01,0,.02,.01,.03,.01,0,0,.02,0,.03,.01,.12,.04,.26,.08,.37,.1,.02,0,.06,0,.08,.01,.12,.01,.24,.02,.36,.01,.01,0,.05,0,.06,0,.1,0,.21-.02,.32-.04,0,0,.03,0,.03,0,.09-.02,.19-.05,.27-.07,.01,0,.03-.01,.05-.02,.08-.03,.16-.06,.24-.09,0,0,.02,0,.03-.01,.14-.06,.29-.14,.43-.22,0,0,.01,0,.02,0,.07-.04,.13-.08,.19-.12,0,0,0,0,0,0,0,0,.01,0,.02-.01,.06-.04,.11-.08,.16-.11l.03-.02c.05-.04,.1-.07,.14-.11l.03-.02s.09-.07,.14-.11c0,0,.02-.02,.02-.02,.04-.04,.09-.07,.14-.11,.04-.03,.07-.07,.11-.1,0,0,0,0,.01-.01,.03-.03,.07-.06,.1-.09,.11-.11,.23-.23,.35-.35,.52-.52,1.05-1.06,1.64-1.43,.2-.08,.44-.18,.67-.31,.42-.01,.83-.03,1.23-.05,.43-.02,.85-.06,1.31-.11,.53,.15,1.04,.36,1.45,.54,.21,.09,.42,.2,.64,.3,.75,.36,1.61,.78,2.63,.93,.06,0,.12,.02,.19,.02h.03c.06,0,.12,.01,.18,.02,0,0,.01,0,.02,0,.07,0,.13,0,.21,0,.17,0,.35,0,.52-.02,1.75-.13,2.16-.96,2.26-1.32,.26-.96-.34-1.59-.99-1.98,.25-.09,.5-.17,.74-.27,.68-.26,1.38-.56,2.07-.89,.17,.06,.34,.11,.51,.15,.93,.23,1.94,.13,2.95-.3,1.62-.68,2.93-1.77,4.08-2.74,.15-.12,.29-.24,.43-.36,1.28-1.06,2.35-2.38,3.16-3.93,.41-.78,.66-1.58,.85-2.26,.05-.19,.09-.37,.12-.57,.25-.35,.49-.72,.73-1.11,.2,.03,.44,.09,.63,.14,.14,.03,.28,.07,.4,.1,1.04,.23,1.91,.41,2.8,.56,1.67,.28,3.34,.31,4.95,.35,.26,0,.52,.01,.78,.02,.51,.01,1.05,0,1.59-.04h0c1.21-.09,2.51-.32,3.99-.7,.88-.23,1.75-.52,2.59-.87,.06-.02,.11-.05,.16-.08,.05-.03,.16-.08,.26-.12,.15-.06,.33-.13,.51-.23,.19-.11,.7-.39,.76-.93,.04-.33-.1-.64-.41-.89-.02-.01-.04-.03-.06-.04Z"/>
            <path class="cls-1" d="M140.77,14.05c-.1-.07-.21-.13-.33-.17-.54-.35-1.06-.72-1.61-1.12-.8-.57-1.62-1.17-2.53-1.69-1.29-.75-3.27-1.79-5.5-2.25-.2-.04-.41-.08-.62-.1,.23-.47,.41-.93,.55-1.38,.11-.37,.21-.73,.3-1.09,.2-.76,.39-1.47,.72-2.14,.07-.13,.13-.26,.19-.39,.19-.39,.35-.73,.6-1.03,.04-.05,.08-.09,.12-.14,.24-.25,.31-.58,.18-.88-.17-.4-.57-.68-1.19-.84-.09-.02-.18-.04-.27-.04-.26-.01-.52,0-.8,.01-.51,.04-1.01,.13-1.38,.21-1,.21-1.81,.44-2.54,.73-1.58,.63-3.05,1.68-4.24,3.02-1.18,1.33-1.85,2.86-2.4,4.31-.31,.81-.56,1.61-.79,2.37-.11,.36-.23,.76-.4,1.14-.06,.14-.13,.27-.19,.37-.09,.04-.17,.08-.26,.12-.56,.26-1.19,.45-1.86,.65-.06,.02-.11,.03-.17,.05-.15,0-.26,0-.38,.02h-.08s-.02,0-.03,0c-.41,.03-.78,.1-1.15,.16l-.22,.04c-.79,.13-1.66,.21-2.83,.24-1.96,.06-3.96-.16-5.66-.39-.21-.03-.43-.06-.65-.08-1.62-.21-3.29-.42-4.64-1l-.13-.06c-.4-.18-1-.45-1.71-.39-.3,.02-.58,.1-.84,.23-.13,.06-.77,.4-1.14,.82-.83-.37-1.6-.7-2.32-1.01-2.08-.87-4.25-1.63-6.34-2.37l-.11-.04c-1.18-.42-2.26-.73-3.31-.95-.32-.07-.63-.13-.93-.18-.25-.05-.5-.09-.74-.14l-.72-.15c-.06-.01-.12-.02-.2-.03-.16-.04-.37-.09-.59-.13-.04,0-.09-.01-.13-.02-.11-.03-.23-.05-.35-.05-.02,0-.04,0-.06-.01-.19-.06-.37-.12-.56-.18-.17-.05-.33-.1-.5-.15-.11-.05-.21-.09-.32-.13-.4-.15-.84-.27-1.33-.36-.7-.25-1.31-.43-1.89-.55-.04,0-.08-.02-.12-.03-.07-.02-.15-.03-.24-.05-.19-.06-.39-.08-.59-.06-.02,0-.04,0-.06,0-.24-.11-.53-.14-.81-.09-.44,.08-.72,.3-.88,.42h-.02c-.1,.09-.19,.17-.27,.26-.4-.09-.79-.16-1.17-.24-.14-.03-.28-.05-.41-.08-1.41-.27-2.6-.43-3.7-.47-.43-.23-.85-.27-1.14-.26-1.01,.04-1.87,.51-2.43,1.32-.58,.84-.32,1.67-.15,2.22,.2,.62,.25,1.31,.16,2.05-.04,.36-.22,.77-.4,1.2-.39,.92-.83,1.97-.33,3.08,.28,.61,.79,1.07,1.5,1.33,.04,.05,.07,.09,.11,.13l.04,.04c.41,.51,.87,1.03,1.46,1.63,.83,.86,1.84,1.74,3.18,2.77,.85,.65,1.78,1.27,2.77,1.83,.29,.19,.63,.41,.95,.65,.15,.11,.32,.22,.54,.34,.16,.11,.31,.22,.47,.32,.49,.32,1.01,.58,1.51,.83,.17,.08,.33,.16,.49,.25,.13,.07,.25,.13,.38,.2,.29,.15,.6,.31,.91,.47,.02,.18,.02,.36,.03,.51,0,.07,0,.13,0,.19,0,.08,0,.17,0,.25v.12c0,.05,0,.11,0,.16v.37c-.01,.06-.01,.13-.01,.19v.14c0,.07,0,.13,0,.2,0,.05,0,.09,0,.14,0,.08,.02,.15,.03,.23v.02s.01,.07,.02,.1c.02,.13,.05,.25,.09,.36,0,0,0,.02,0,.03,.04,.13,.09,.26,.15,.38,.37,.79,1.29,1.25,2.34,1.18,.2-.02,.4-.05,.61-.1,.08-.02,.14-.04,.2-.06,.02,0,.05-.01,.07-.02,.03-.01,.07-.03,.1-.04,.06-.02,.11-.05,.17-.08,.05-.03,.11-.05,.15-.08,.06-.04,.12-.07,.18-.11,.05-.03,.09-.06,.14-.1,.05-.04,.1-.08,.15-.12,.04-.04,.08-.08,.13-.12,.04-.04,.08-.08,.12-.12,.04-.04,.07-.09,.11-.13,0,0,.01-.02,.01-.02,.03-.04,.05-.07,.08-.11,.03-.05,.06-.1,.1-.16,.02-.03,.04-.07,.06-.1,.03-.06,.06-.12,.09-.19,.01-.03,.02-.06,.04-.08,.04-.09,.07-.19,.09-.28,.05-.2,.07-.41,.07-.61,.22,.06,.43,.13,.65,.19,1.25,.37,2.54,.75,3.89,1.01,.78,.15,1.59,.28,2.43,.37-.04,.03-.07,.06-.11,.08-.03,.02-.05,.04-.07,.06-.05,.04-.09,.08-.13,.12-.03,.02-.05,.05-.08,.07-.04,.04-.08,.08-.12,.12,0,0-.02,.02-.02,.02-.02,.02-.04,.04-.05,.06-.05,.05-.09,.11-.13,.16-.02,.02-.04,.05-.05,.07-.06,.08-.11,.16-.15,.24-.01,.02-.03,.05-.04,.07-.03,.06-.06,.13-.09,.19-.01,.03-.02,.07-.04,.1-.02,.06-.04,.13-.05,.19,0,.04-.01,.07-.02,.1,0,.04-.01,.07-.02,.11,0,.04,0,.07,0,.11,0,.27,.05,.52,.16,.77,.06,.12,.13,.24,.21,.34,.08,.09,.17,.18,.27,.26,.01,.01,.03,.02,.04,.03,.1,.08,.22,.14,.35,.19,.01,0,.02,.01,.03,.01,0,0,.02,0,.03,.01,.12,.04,.26,.08,.37,.1,.02,0,.06,0,.08,.01,.12,.01,.24,.02,.36,.01,.01,0,.05,0,.06,0,.1,0,.21-.02,.32-.04,0,0,.03,0,.03,0,.09-.02,.19-.05,.26-.07,.01,0,.03-.01,.05-.02,.08-.03,.16-.06,.24-.09,0,0,.02,0,.03-.01,.14-.06,.29-.14,.43-.22,0,0,.01,0,.02,0,.06-.04,.13-.08,.19-.12,0,0,0,0,0,0,0,0,.01,0,.02-.01,.06-.04,.11-.08,.16-.11l.03-.02c.05-.04,.1-.07,.14-.11l.03-.02s.09-.07,.14-.11c0,0,.02-.02,.02-.02,.05-.04,.09-.07,.14-.11,.04-.03,.07-.07,.11-.1,0,0,0,0,.01-.01,.03-.03,.07-.06,.1-.09,.11-.11,.23-.23,.35-.35,.52-.52,1.05-1.06,1.64-1.43,.2-.08,.44-.18,.67-.31,.42-.01,.83-.03,1.23-.05,.43-.02,.85-.06,1.31-.11,.53,.15,1.04,.36,1.45,.54,.21,.09,.42,.2,.64,.3,.75,.36,1.61,.78,2.63,.93,.06,0,.12,.02,.19,.02h.03c.06,0,.12,.01,.18,.02,0,0,.01,0,.02,0,.07,0,.13,0,.21,0,.17,0,.35,0,.52-.02,1.75-.13,2.16-.96,2.26-1.32,.26-.96-.34-1.59-.99-1.98,.25-.09,.5-.17,.74-.27,.68-.26,1.38-.56,2.07-.89,.17,.06,.34,.11,.51,.15,.93,.23,1.94,.13,2.95-.3,1.62-.68,2.93-1.77,4.08-2.74,.15-.12,.29-.24,.43-.36,1.28-1.06,2.35-2.38,3.16-3.93,.41-.78,.66-1.58,.85-2.26,.05-.19,.09-.37,.12-.57,.25-.35,.49-.72,.73-1.11,.2,.03,.44,.09,.63,.14,.14,.03,.27,.07,.4,.1,1.04,.23,1.91,.41,2.8,.56,1.67,.28,3.34,.31,4.95,.35,.26,0,.52,.01,.78,.02,.51,.01,1.05,0,1.59-.04h0c1.21-.09,2.52-.32,3.99-.7,.88-.23,1.75-.52,2.59-.87,.06-.02,.11-.05,.16-.08,.05-.03,.16-.08,.26-.12,.15-.06,.33-.13,.51-.23,.19-.11,.7-.39,.76-.93,.04-.33-.1-.64-.41-.89-.02-.01-.04-.03-.06-.04Z"/>
            <path class="cls-22" d="M140.63,13.92c-.1-.07-.21-.13-.33-.17-.54-.35-1.06-.72-1.61-1.12-.8-.57-1.62-1.17-2.53-1.69-1.29-.75-3.27-1.79-5.5-2.25-.2-.04-.41-.08-.62-.1,.23-.47,.41-.93,.55-1.38,.11-.37,.21-.73,.3-1.09,.2-.76,.39-1.47,.72-2.14,.06-.13,.13-.26,.19-.39,.19-.39,.35-.73,.6-1.03,.04-.05,.08-.09,.12-.14,.24-.25,.31-.58,.18-.88-.17-.4-.57-.68-1.19-.84-.09-.02-.18-.04-.27-.04-.26-.01-.52,0-.8,.01-.51,.04-1.01,.13-1.38,.21-1,.21-1.81,.44-2.54,.73-1.58,.63-3.05,1.68-4.24,3.02-1.18,1.33-1.85,2.86-2.4,4.31-.31,.81-.56,1.61-.79,2.37-.11,.36-.23,.76-.4,1.14-.06,.14-.13,.27-.19,.37-.09,.04-.17,.08-.26,.12-.56,.26-1.19,.45-1.86,.65-.06,.02-.11,.03-.17,.05-.15,0-.26,0-.38,.02h-.08s-.02,0-.03,0c-.41,.03-.78,.1-1.15,.16l-.21,.04c-.79,.13-1.66,.21-2.83,.24-1.96,.06-3.96-.16-5.66-.39-.21-.03-.43-.06-.65-.08-1.62-.2-3.29-.42-4.64-1l-.13-.06c-.4-.18-1-.45-1.71-.39-.3,.02-.58,.1-.84,.23-.13,.06-.77,.4-1.14,.82-.83-.37-1.6-.7-2.32-1.01-2.08-.87-4.25-1.63-6.34-2.37l-.11-.04c-1.18-.42-2.26-.73-3.31-.95-.32-.07-.63-.13-.93-.18-.25-.05-.5-.09-.74-.14l-.72-.15c-.06-.01-.12-.02-.19-.03-.16-.04-.37-.09-.59-.13-.04,0-.09-.01-.13-.02-.11-.03-.23-.05-.35-.05-.02,0-.04,0-.06,0-.19-.06-.37-.12-.56-.18-.17-.05-.33-.1-.5-.15-.11-.05-.21-.09-.32-.13-.4-.15-.84-.27-1.33-.36-.7-.25-1.31-.43-1.89-.55-.04,0-.08-.02-.12-.03-.07-.02-.15-.03-.24-.05-.19-.06-.39-.08-.59-.06-.02,0-.04,0-.06,0-.24-.11-.53-.14-.81-.09-.44,.08-.73,.3-.88,.42h-.02c-.1,.09-.19,.17-.27,.26-.4-.09-.79-.16-1.17-.24-.14-.03-.28-.05-.41-.08-1.41-.27-2.6-.43-3.7-.47-.43-.23-.85-.27-1.14-.26-1.01,.04-1.87,.51-2.43,1.32-.58,.84-.32,1.67-.15,2.22,.2,.62,.25,1.31,.16,2.05-.04,.36-.22,.77-.4,1.2-.39,.92-.83,1.97-.33,3.08,.28,.61,.79,1.07,1.5,1.33,.04,.05,.07,.09,.11,.13l.04,.04c.41,.51,.87,1.03,1.46,1.63,.83,.86,1.84,1.74,3.18,2.77,.85,.65,1.78,1.27,2.77,1.83,.29,.19,.63,.41,.95,.65,.15,.11,.32,.22,.54,.34,.16,.11,.31,.22,.47,.32,.49,.32,1.01,.58,1.51,.83,.17,.08,.33,.16,.49,.25,.13,.07,.25,.13,.38,.2,.29,.15,.6,.31,.91,.47,.02,.18,.02,.36,.03,.51,0,.07,0,.13,0,.19,0,.08,0,.17,0,.25v.12c0,.05,0,.11,0,.16v.37c-.01,.06-.01,.13-.01,.19v.14c0,.07,0,.13,0,.2,0,.05,0,.09,0,.14,0,.08,.02,.15,.03,.23v.02s.01,.07,.02,.1c.02,.13,.05,.25,.09,.36,0,0,0,.02,0,.03,.04,.13,.09,.26,.15,.38,.37,.79,1.29,1.25,2.34,1.18,.2-.02,.4-.05,.61-.1,.08-.02,.14-.04,.2-.06,.02,0,.05-.01,.07-.02,.03-.01,.07-.03,.1-.04,.06-.02,.11-.05,.17-.08,.05-.03,.11-.05,.15-.08,.06-.04,.12-.07,.18-.11,.05-.03,.09-.06,.14-.1,.05-.04,.1-.08,.15-.12,.04-.04,.08-.07,.13-.12,.04-.04,.08-.08,.12-.12,.04-.04,.07-.09,.11-.13,0,0,.01-.02,.01-.02,.03-.04,.05-.07,.08-.11,.03-.05,.06-.1,.1-.16,.02-.03,.04-.07,.06-.1,.03-.06,.06-.12,.09-.19,.01-.03,.02-.05,.04-.08,.04-.09,.07-.19,.09-.28,.05-.2,.07-.41,.07-.61,.22,.06,.43,.13,.65,.19,1.25,.37,2.54,.75,3.89,1.01,.78,.15,1.59,.28,2.43,.37-.04,.03-.07,.06-.11,.08-.03,.02-.05,.04-.07,.06-.05,.04-.09,.08-.13,.12-.03,.02-.05,.05-.08,.07-.04,.04-.08,.08-.12,.12,0,0-.02,.02-.02,.02-.02,.02-.04,.04-.05,.06-.05,.05-.09,.11-.13,.16-.02,.02-.04,.05-.05,.06-.06,.08-.11,.16-.15,.24-.01,.02-.03,.05-.04,.07-.03,.06-.06,.13-.09,.19-.01,.03-.02,.07-.04,.1-.02,.06-.04,.13-.05,.19,0,.04-.01,.07-.02,.1,0,.04-.01,.07-.02,.11,0,.04,0,.07,0,.11,0,.27,.05,.52,.16,.77,.06,.12,.13,.24,.21,.33,.08,.09,.17,.18,.27,.26,.01,.01,.03,.02,.04,.03,.1,.08,.22,.14,.35,.19,.01,0,.02,.01,.03,.01,0,0,.02,0,.03,.01,.12,.04,.26,.08,.37,.1,.02,0,.06,0,.08,.01,.12,.01,.24,.02,.36,.01,.01,0,.05,0,.06,0,.1,0,.21-.02,.32-.04,0,0,.03,0,.03,0,.09-.02,.19-.05,.27-.07,.01,0,.03-.01,.05-.02,.08-.03,.16-.06,.24-.09,0,0,.02,0,.03-.01,.14-.06,.29-.14,.43-.22,0,0,.01,0,.02,0,.07-.04,.13-.08,.19-.12,0,0,0,0,0,0,0,0,.01,0,.02-.01,.06-.04,.11-.08,.16-.11l.03-.02c.05-.04,.1-.07,.14-.11l.03-.02s.09-.07,.14-.11c0,0,.02-.02,.02-.02,.05-.04,.09-.07,.14-.11,.04-.03,.07-.07,.11-.1,0,0,0,0,.01-.01,.03-.03,.07-.06,.1-.09,.11-.11,.23-.23,.35-.35,.52-.52,1.05-1.06,1.64-1.43,.2-.08,.44-.18,.67-.31,.42-.01,.83-.03,1.23-.05,.43-.02,.85-.06,1.31-.11,.53,.15,1.04,.36,1.45,.54,.21,.09,.42,.2,.64,.3,.75,.36,1.61,.78,2.63,.93,.06,0,.12,.02,.19,.02h.03c.06,0,.12,.01,.18,.02,0,0,.01,0,.02,0,.07,0,.13,0,.21,0,.17,0,.35,0,.52-.02,1.75-.13,2.16-.96,2.26-1.32,.26-.96-.34-1.59-.99-1.98,.25-.09,.5-.17,.74-.27,.68-.26,1.38-.56,2.07-.89,.17,.06,.34,.11,.51,.15,.93,.23,1.94,.13,2.95-.3,1.62-.68,2.92-1.77,4.08-2.74,.15-.12,.29-.24,.43-.36,1.28-1.06,2.35-2.38,3.16-3.93,.41-.78,.66-1.58,.85-2.26,.05-.19,.09-.37,.12-.57,.25-.35,.49-.72,.73-1.11,.2,.03,.44,.09,.63,.14,.14,.03,.28,.07,.4,.1,1.04,.23,1.91,.41,2.8,.56,1.67,.28,3.34,.31,4.95,.35,.26,0,.52,.01,.78,.02,.51,.01,1.05,0,1.59-.04h0c1.21-.09,2.51-.32,3.99-.7,.88-.23,1.75-.52,2.59-.87,.06-.02,.11-.05,.16-.08,.05-.03,.16-.08,.26-.12,.15-.06,.33-.13,.51-.23,.19-.11,.7-.39,.76-.93,.04-.33-.1-.64-.41-.89-.02-.01-.04-.03-.06-.04Z"/>
            <path class="cls-19" d="M140.49,13.79c-.1-.07-.21-.13-.33-.17-.54-.35-1.06-.72-1.61-1.12-.8-.57-1.62-1.17-2.53-1.69-1.29-.75-3.27-1.79-5.5-2.25-.2-.04-.41-.08-.62-.1,.23-.47,.41-.93,.55-1.38,.11-.37,.21-.73,.3-1.09,.2-.76,.39-1.47,.72-2.14,.07-.13,.13-.26,.19-.39,.19-.39,.35-.73,.6-1.03,.04-.05,.08-.09,.12-.14,.24-.25,.31-.58,.18-.88-.17-.4-.57-.68-1.19-.84-.09-.02-.18-.04-.27-.04-.26-.01-.52-.01-.8,.01-.51,.04-1.01,.13-1.38,.21-1,.21-1.81,.44-2.54,.73-1.58,.63-3.05,1.68-4.24,3.02-1.18,1.33-1.85,2.86-2.4,4.31-.31,.81-.56,1.61-.79,2.37-.11,.36-.23,.76-.4,1.14-.06,.14-.13,.27-.19,.37-.09,.04-.17,.08-.26,.12-.56,.26-1.19,.45-1.86,.65-.06,.02-.11,.03-.17,.05-.15,0-.26,0-.38,.02h-.08s-.02,0-.03,0c-.41,.03-.78,.1-1.15,.16l-.21,.04c-.79,.13-1.66,.21-2.83,.24-1.96,.06-3.96-.16-5.66-.39-.21-.03-.43-.06-.65-.08-1.62-.2-3.29-.42-4.64-1l-.13-.06c-.4-.18-1-.45-1.71-.39-.3,.02-.58,.1-.84,.23-.13,.06-.77,.4-1.14,.82-.83-.37-1.6-.7-2.32-1.01-2.08-.87-4.25-1.63-6.34-2.37l-.11-.04c-1.18-.42-2.26-.73-3.31-.95-.32-.07-.63-.13-.93-.18-.25-.05-.5-.09-.74-.14l-.72-.15c-.06-.01-.12-.02-.2-.03-.16-.04-.37-.09-.59-.13-.04,0-.09-.01-.13-.02-.11-.03-.23-.05-.35-.05-.02,0-.04,0-.06,0-.19-.06-.37-.12-.56-.18-.17-.05-.33-.1-.5-.15-.11-.05-.21-.09-.32-.13-.4-.15-.84-.27-1.33-.36-.7-.25-1.31-.43-1.89-.55-.04,0-.08-.02-.12-.03-.07-.02-.15-.03-.24-.05-.19-.06-.39-.08-.59-.06-.02,0-.04,0-.06,0-.24-.11-.53-.14-.81-.09-.44,.08-.73,.3-.88,.42h-.02c-.1,.09-.19,.17-.27,.26-.4-.09-.79-.16-1.17-.24-.14-.03-.27-.05-.41-.08-1.41-.27-2.6-.43-3.7-.47-.43-.23-.85-.27-1.14-.26-1.01,.04-1.87,.51-2.43,1.32-.58,.84-.32,1.67-.15,2.22,.2,.62,.25,1.31,.16,2.05-.04,.36-.22,.77-.4,1.2-.39,.92-.83,1.97-.33,3.08,.28,.61,.79,1.07,1.5,1.33,.04,.05,.07,.09,.11,.13l.04,.04c.41,.51,.87,1.03,1.46,1.63,.83,.86,1.84,1.74,3.18,2.77,.85,.65,1.78,1.27,2.77,1.83,.29,.19,.63,.41,.95,.65,.15,.11,.32,.22,.54,.34,.16,.11,.31,.22,.47,.32,.49,.32,1.01,.58,1.51,.83,.17,.08,.33,.16,.49,.25,.13,.07,.25,.13,.38,.2,.29,.15,.6,.31,.91,.47,.02,.18,.02,.36,.03,.51,0,.07,0,.13,0,.19,0,.08,0,.17,0,.25v.12c0,.05,0,.11,0,.16v.37c-.01,.06-.01,.13-.01,.19v.14c0,.07,0,.13,0,.2,0,.04,0,.09,0,.14,0,.08,.02,.15,.03,.23v.02s.01,.07,.02,.1c.02,.13,.05,.25,.09,.36,0,0,0,.02,0,.03,.04,.13,.09,.26,.15,.38,.37,.79,1.29,1.25,2.34,1.18,.2-.02,.4-.05,.61-.1,.08-.02,.14-.04,.2-.06,.02,0,.05-.01,.07-.02,.03-.01,.07-.03,.1-.04,.06-.02,.11-.05,.17-.08,.05-.03,.11-.05,.15-.08,.06-.04,.12-.07,.18-.11,.05-.03,.09-.06,.14-.1,.05-.04,.1-.08,.15-.12,.04-.04,.08-.07,.12-.12,.04-.04,.08-.08,.12-.12,.04-.04,.07-.09,.11-.13,0,0,.01-.02,.01-.02,.03-.04,.05-.07,.08-.11,.03-.05,.06-.1,.1-.16,.02-.03,.04-.07,.06-.1,.03-.06,.06-.12,.09-.19,.01-.03,.02-.05,.04-.08,.04-.09,.07-.19,.09-.28,.05-.2,.07-.41,.07-.61,.22,.06,.43,.13,.65,.19,1.25,.37,2.54,.75,3.89,1.01,.78,.15,1.59,.28,2.43,.37-.03,.03-.07,.06-.11,.08-.03,.02-.05,.04-.07,.06-.05,.04-.09,.08-.13,.12-.03,.02-.05,.05-.08,.07-.04,.04-.08,.08-.12,.12,0,0-.02,.02-.02,.02-.02,.02-.04,.04-.05,.06-.05,.05-.09,.11-.13,.16-.02,.02-.04,.05-.05,.07-.06,.08-.11,.16-.15,.24-.01,.02-.03,.05-.04,.07-.03,.06-.06,.13-.09,.19-.01,.03-.02,.07-.04,.1-.02,.06-.04,.13-.05,.19,0,.04-.01,.07-.02,.1,0,.04-.01,.07-.02,.11,0,.04,0,.07,0,.11,0,.27,.05,.52,.16,.77,.06,.12,.13,.24,.21,.34,.08,.09,.17,.18,.27,.26,.01,.01,.03,.02,.04,.03,.1,.08,.22,.14,.35,.19,.01,0,.02,.01,.03,.01,0,0,.02,0,.03,.01,.12,.04,.26,.08,.37,.1,.02,0,.06,0,.08,.01,.12,.01,.24,.02,.36,.01,.01,0,.05,0,.06,0,.1,0,.21-.02,.32-.04,0,0,.03,0,.04,0,.09-.02,.19-.05,.26-.07,.01,0,.03-.01,.05-.02,.08-.03,.16-.06,.24-.09,0,0,.02,0,.03-.01,.14-.06,.29-.14,.43-.22,0,0,.01,0,.02,0,.07-.04,.13-.08,.19-.12,0,0,0,0,0,0,0,0,.01,0,.02-.01,.06-.04,.11-.08,.16-.11l.03-.02c.05-.04,.1-.07,.14-.11l.03-.02s.09-.07,.14-.11c0,0,.02-.02,.02-.02,.04-.04,.09-.07,.14-.11,.04-.03,.07-.07,.11-.1,0,0,0,0,.01-.01,.03-.03,.07-.06,.1-.09,.11-.11,.23-.23,.35-.35,.52-.52,1.05-1.06,1.64-1.43,.2-.08,.44-.18,.67-.31,.42-.01,.83-.03,1.23-.05,.43-.02,.85-.06,1.31-.11,.53,.15,1.04,.36,1.45,.54,.21,.1,.42,.2,.63,.3,.75,.36,1.61,.78,2.63,.93,.06,0,.12,.02,.19,.02h.03c.06,0,.12,.01,.18,.02,0,0,.01,0,.02,0,.07,0,.13,0,.21,0,.17,0,.35,0,.52-.02,1.75-.13,2.16-.96,2.26-1.32,.26-.96-.34-1.59-.99-1.98,.25-.09,.5-.17,.74-.27,.68-.26,1.38-.56,2.07-.89,.17,.06,.34,.11,.51,.15,.93,.23,1.94,.13,2.95-.3,1.62-.68,2.93-1.77,4.08-2.74,.15-.12,.29-.24,.43-.36,1.28-1.06,2.35-2.38,3.16-3.93,.41-.78,.66-1.58,.85-2.26,.05-.19,.09-.37,.12-.57,.25-.35,.49-.72,.73-1.11,.2,.03,.44,.09,.63,.14,.14,.03,.27,.07,.4,.1,1.04,.23,1.91,.41,2.8,.56,1.67,.28,3.34,.31,4.95,.35,.26,0,.52,.01,.78,.02,.51,.01,1.05,0,1.59-.04h0c1.21-.09,2.51-.32,3.99-.7,.88-.23,1.75-.52,2.59-.87,.06-.02,.11-.05,.16-.08,.05-.03,.16-.08,.26-.12,.15-.06,.33-.13,.51-.23,.19-.11,.7-.39,.76-.93,.04-.33-.1-.64-.41-.89-.02-.01-.04-.03-.06-.04Z"/>
            <path class="cls-9" d="M140.34,13.65c-.1-.07-.21-.13-.33-.17-.54-.35-1.06-.72-1.61-1.12-.8-.57-1.62-1.17-2.53-1.69-1.29-.75-3.27-1.79-5.5-2.25-.2-.04-.41-.08-.62-.1,.23-.47,.41-.93,.55-1.38,.11-.37,.21-.73,.3-1.09,.2-.76,.39-1.47,.72-2.14,.06-.13,.13-.26,.19-.39,.19-.39,.35-.73,.6-1.03,.04-.05,.08-.09,.12-.14,.24-.25,.31-.58,.18-.88-.17-.4-.57-.68-1.19-.84-.09-.02-.18-.04-.27-.04-.26-.01-.52,0-.8,.01-.51,.04-1.01,.13-1.38,.21-1,.21-1.81,.44-2.54,.73-1.58,.63-3.05,1.68-4.24,3.02-1.18,1.33-1.85,2.86-2.4,4.31-.31,.81-.56,1.61-.79,2.37-.11,.36-.23,.76-.4,1.14-.06,.14-.13,.27-.19,.37-.09,.04-.17,.08-.26,.12-.56,.26-1.19,.45-1.86,.65-.06,.02-.11,.03-.17,.05-.15,0-.26,0-.38,.02h-.08s-.02,0-.02,0c-.41,.03-.79,.1-1.15,.16l-.21,.04c-.79,.13-1.66,.21-2.83,.24-1.96,.06-3.96-.16-5.66-.39-.21-.03-.43-.06-.65-.08-1.62-.21-3.29-.42-4.64-1l-.13-.06c-.4-.18-1-.45-1.71-.39-.3,.02-.58,.1-.84,.23-.13,.06-.77,.4-1.14,.82-.83-.37-1.6-.7-2.32-1.01-2.08-.87-4.25-1.63-6.34-2.37l-.11-.04c-1.18-.42-2.26-.73-3.31-.95-.32-.07-.63-.13-.93-.18-.25-.05-.5-.09-.74-.14l-.72-.15c-.06-.01-.12-.02-.2-.03-.16-.04-.37-.09-.59-.13-.04,0-.09-.01-.13-.02-.11-.03-.23-.05-.35-.05-.02,0-.04,0-.06-.01-.19-.06-.37-.12-.56-.18-.17-.05-.33-.1-.5-.15-.11-.05-.21-.09-.32-.13-.4-.15-.84-.27-1.33-.36-.7-.25-1.31-.43-1.89-.55-.04,0-.08-.02-.12-.03-.07-.02-.15-.03-.24-.05-.19-.06-.39-.08-.59-.06-.02,0-.04,0-.06,0-.24-.11-.53-.14-.81-.09-.44,.08-.73,.3-.88,.42h-.02c-.1,.09-.19,.17-.27,.26-.4-.09-.79-.16-1.17-.24-.14-.03-.27-.05-.41-.08-1.41-.27-2.6-.43-3.7-.47-.43-.23-.85-.27-1.14-.26-1.01,.04-1.87,.51-2.43,1.32-.58,.84-.32,1.67-.15,2.22,.2,.62,.25,1.31,.16,2.05-.04,.36-.22,.77-.4,1.2-.39,.92-.83,1.97-.33,3.08,.28,.61,.79,1.07,1.5,1.33,.04,.05,.07,.09,.11,.13l.04,.04c.41,.51,.87,1.03,1.46,1.63,.83,.86,1.84,1.74,3.18,2.77,.85,.65,1.78,1.27,2.77,1.83,.29,.19,.63,.41,.95,.65,.15,.11,.32,.22,.54,.34,.16,.11,.31,.22,.47,.32,.49,.32,1.01,.58,1.51,.83,.17,.08,.33,.16,.49,.25,.13,.07,.25,.13,.38,.2,.29,.15,.6,.31,.91,.47,.02,.18,.02,.36,.03,.51,0,.07,0,.13,0,.19,0,.08,0,.17,0,.25v.12c0,.05,0,.11,0,.16v.37c-.01,.06-.01,.13-.01,.19v.14c0,.07,0,.13,0,.2,0,.04,0,.09,0,.14,0,.08,.02,.15,.03,.23v.02s.01,.07,.02,.1c.02,.13,.06,.25,.09,.37,0,0,0,.02,0,.03,.04,.13,.09,.26,.15,.38,.37,.79,1.29,1.25,2.34,1.18,.2-.02,.4-.05,.61-.1,.08-.02,.14-.04,.2-.06,.02,0,.05-.01,.07-.02,.03-.01,.07-.03,.1-.04,.06-.03,.11-.05,.17-.08,.05-.03,.11-.05,.15-.08,.06-.04,.12-.07,.18-.11,.05-.03,.09-.06,.14-.1,.05-.04,.1-.08,.15-.12,.04-.04,.08-.08,.13-.12,.04-.04,.08-.08,.12-.12,.04-.04,.07-.09,.11-.13,0,0,.01-.02,.01-.02,.03-.04,.05-.07,.08-.11,.03-.05,.06-.1,.1-.16,.02-.03,.04-.07,.06-.1,.03-.06,.06-.12,.09-.19,.01-.03,.02-.05,.04-.08,.04-.09,.07-.19,.09-.28,.05-.2,.07-.41,.07-.61,.22,.06,.43,.13,.65,.19,1.25,.37,2.54,.75,3.89,1.01,.78,.15,1.59,.28,2.43,.37-.03,.03-.07,.06-.11,.08-.03,.02-.05,.04-.07,.06-.05,.04-.09,.08-.13,.12-.03,.02-.05,.05-.08,.07-.04,.04-.08,.08-.12,.12,0,0-.02,.02-.02,.02-.02,.02-.04,.04-.05,.06-.05,.05-.09,.11-.13,.16-.02,.02-.04,.05-.05,.07-.06,.08-.11,.16-.15,.24-.01,.02-.03,.05-.04,.07-.03,.06-.06,.13-.09,.19-.01,.03-.02,.07-.04,.1-.02,.06-.04,.13-.05,.19,0,.04-.01,.07-.02,.1,0,.04-.01,.07-.02,.11,0,.04,0,.07,0,.11,0,.27,.05,.52,.16,.77,.06,.12,.13,.24,.21,.34,.08,.09,.17,.18,.27,.26,.01,.01,.03,.02,.04,.03,.1,.08,.22,.14,.35,.19,.01,0,.02,.01,.03,.01,0,0,.02,0,.03,.01,.12,.04,.26,.08,.37,.1,.02,0,.06,0,.08,.01,.12,.01,.24,.02,.36,.01,.01,0,.05,0,.06,0,.1,0,.21-.02,.32-.04,0,0,.03,0,.03,0,.09-.02,.19-.05,.27-.07,.01,0,.03-.01,.05-.02,.08-.03,.16-.06,.24-.09,0,0,.02,0,.03-.01,.14-.06,.29-.14,.43-.22,0,0,.01,0,.02,0,.07-.04,.13-.08,.19-.12,0,0,0,0,0,0,0,0,.01,0,.02-.01,.06-.04,.11-.08,.16-.11l.03-.02c.05-.04,.1-.07,.14-.11l.03-.02s.09-.07,.14-.11c0,0,.02-.02,.02-.02,.05-.04,.09-.07,.14-.12,.04-.03,.07-.07,.11-.1,0,0,0,0,.01-.01,.03-.03,.07-.06,.1-.09,.11-.11,.23-.23,.35-.35,.52-.52,1.05-1.06,1.64-1.43,.2-.08,.44-.18,.67-.31,.42-.01,.83-.03,1.23-.05,.43-.02,.85-.06,1.31-.11,.53,.15,1.04,.36,1.45,.54,.21,.09,.42,.2,.63,.3,.75,.36,1.61,.78,2.63,.93,.06,0,.12,.02,.19,.02h.03c.06,0,.12,.01,.18,.02,0,0,.01,0,.02,0,.07,0,.13,0,.21,0,.17,0,.35,0,.52-.02,1.75-.13,2.16-.96,2.26-1.32,.26-.96-.34-1.59-.99-1.98,.25-.09,.5-.17,.74-.27,.68-.26,1.38-.56,2.07-.89,.17,.06,.34,.11,.51,.15,.93,.23,1.94,.13,2.95-.3,1.62-.68,2.93-1.77,4.08-2.74,.15-.12,.29-.24,.43-.36,1.28-1.06,2.35-2.38,3.16-3.93,.41-.78,.66-1.58,.85-2.26,.05-.19,.09-.37,.12-.57,.25-.35,.49-.72,.73-1.11,.2,.03,.44,.09,.63,.14,.14,.03,.27,.07,.4,.1,1.04,.23,1.91,.41,2.8,.56,1.67,.28,3.34,.31,4.95,.35,.26,0,.52,.01,.78,.02,.51,.01,1.05,0,1.59-.04h0c1.21-.09,2.51-.32,3.99-.7,.88-.23,1.75-.52,2.59-.87,.06-.02,.11-.05,.16-.08,.05-.03,.16-.08,.26-.12,.15-.06,.33-.13,.51-.23,.19-.11,.7-.39,.76-.93,.04-.33-.1-.65-.41-.89-.02-.01-.04-.03-.06-.04Z"/>
            <path class="cls-17" d="M140.2,13.52c-.1-.07-.21-.13-.33-.17-.54-.35-1.06-.72-1.61-1.12-.8-.57-1.62-1.17-2.53-1.69-1.29-.75-3.27-1.79-5.5-2.25-.2-.04-.41-.08-.62-.1,.23-.47,.41-.93,.55-1.38,.11-.37,.21-.73,.3-1.09,.2-.76,.39-1.47,.72-2.14,.07-.13,.13-.26,.19-.39,.19-.39,.35-.73,.6-1.03,.04-.05,.08-.09,.13-.14,.24-.25,.31-.58,.18-.88-.17-.4-.57-.68-1.19-.84-.09-.02-.18-.04-.27-.04-.26-.01-.52,0-.8,.01-.51,.04-1.01,.13-1.38,.21-1,.21-1.81,.44-2.54,.73-1.58,.63-3.05,1.68-4.24,3.02-1.18,1.33-1.85,2.86-2.4,4.31-.31,.81-.56,1.61-.79,2.37-.11,.36-.23,.76-.4,1.14-.06,.14-.13,.27-.19,.37-.09,.04-.17,.08-.26,.12-.56,.26-1.19,.45-1.86,.65-.06,.02-.11,.03-.17,.05-.15,0-.26,0-.38,.02h-.08s-.02,0-.03,0c-.41,.03-.78,.1-1.15,.16l-.22,.04c-.79,.13-1.66,.21-2.83,.24-1.96,.06-3.96-.16-5.66-.39-.21-.03-.43-.06-.65-.08-1.62-.2-3.29-.42-4.64-1l-.13-.06c-.4-.18-1-.45-1.71-.39-.3,.02-.58,.1-.84,.23-.13,.06-.77,.4-1.14,.82-.83-.37-1.6-.7-2.32-1.01-2.08-.87-4.25-1.63-6.34-2.37l-.11-.04c-1.18-.42-2.26-.73-3.31-.95-.32-.07-.63-.13-.93-.18-.25-.05-.5-.09-.74-.14l-.72-.15c-.06-.01-.12-.02-.2-.03-.16-.04-.37-.09-.59-.13-.04,0-.09-.01-.13-.02-.11-.03-.23-.05-.35-.05-.02,0-.04,0-.06,0-.19-.06-.37-.12-.56-.18-.17-.05-.33-.1-.5-.15-.11-.05-.21-.09-.32-.13-.4-.15-.84-.27-1.33-.36-.7-.25-1.31-.42-1.89-.55-.04,0-.08-.02-.12-.03-.07-.02-.15-.03-.24-.05-.18-.06-.39-.08-.59-.06-.02,0-.04,0-.06,0-.24-.11-.53-.14-.81-.09-.44,.08-.73,.3-.88,.42h-.02c-.1,.09-.19,.17-.27,.26-.4-.09-.79-.16-1.17-.24-.14-.03-.27-.05-.41-.08-1.41-.27-2.6-.43-3.7-.47-.43-.23-.85-.27-1.14-.26-1.01,.04-1.87,.51-2.43,1.32-.58,.84-.32,1.67-.15,2.22,.2,.62,.25,1.31,.16,2.05-.04,.36-.22,.77-.4,1.2-.39,.92-.83,1.97-.33,3.08,.28,.61,.79,1.07,1.5,1.33,.04,.05,.07,.09,.11,.13l.04,.04c.41,.51,.87,1.03,1.46,1.63,.83,.86,1.84,1.74,3.18,2.77,.85,.65,1.78,1.27,2.77,1.83,.29,.19,.63,.41,.95,.65,.15,.11,.32,.22,.54,.34,.16,.11,.31,.22,.47,.32,.49,.32,1.01,.58,1.51,.83,.17,.08,.33,.16,.49,.25,.13,.07,.25,.13,.38,.2,.29,.15,.6,.31,.91,.47,.02,.18,.02,.36,.03,.51,0,.07,0,.13,0,.19,0,.08,0,.17,0,.25v.12c0,.05,0,.11,0,.16v.37c-.01,.06-.01,.13-.01,.19v.14c0,.07,0,.13,0,.2,0,.04,0,.09,0,.14,0,.08,.02,.15,.03,.23v.02s.01,.07,.02,.1c.02,.13,.05,.25,.09,.36,0,0,0,.02,0,.03,.04,.13,.09,.26,.15,.38,.37,.79,1.29,1.25,2.34,1.18,.2-.02,.4-.05,.61-.1,.08-.02,.14-.04,.2-.06,.02,0,.05-.01,.07-.02,.03-.01,.07-.03,.1-.04,.06-.02,.11-.05,.17-.08,.05-.03,.11-.05,.15-.08,.06-.03,.12-.07,.18-.11,.05-.03,.09-.06,.14-.1,.05-.04,.1-.08,.15-.12,.04-.04,.08-.07,.12-.12,.04-.04,.08-.08,.12-.12,.04-.04,.07-.09,.11-.13,0,0,.01-.02,.01-.02,.03-.03,.05-.07,.08-.11,.03-.05,.06-.1,.1-.16,.02-.03,.04-.07,.06-.1,.03-.06,.06-.12,.09-.19,.01-.03,.02-.05,.04-.08,.04-.09,.07-.19,.09-.28,.05-.21,.07-.41,.07-.61,.22,.06,.43,.13,.65,.19,1.25,.37,2.54,.75,3.89,1.01,.78,.15,1.59,.28,2.43,.37-.03,.03-.07,.05-.11,.08-.03,.02-.05,.04-.07,.06-.05,.04-.09,.08-.13,.12-.03,.02-.05,.05-.08,.07-.04,.04-.08,.08-.12,.12,0,0-.02,.02-.02,.02-.02,.02-.04,.04-.05,.06-.05,.05-.09,.11-.13,.16-.02,.02-.04,.05-.05,.07-.06,.08-.11,.16-.15,.24-.01,.02-.03,.05-.04,.07-.03,.06-.06,.13-.09,.19-.01,.03-.02,.07-.04,.1-.02,.06-.04,.13-.05,.19,0,.04-.01,.07-.02,.1,0,.04-.01,.07-.02,.11,0,.04,0,.07,0,.11,0,.27,.05,.52,.16,.77,.06,.12,.13,.24,.21,.33,.08,.09,.17,.18,.27,.26,.01,.01,.03,.02,.04,.03,.1,.08,.22,.14,.35,.19,.01,0,.02,.01,.03,.01,0,0,.02,0,.03,.01,.12,.04,.26,.08,.37,.1,.02,0,.06,0,.08,.01,.12,.01,.24,.02,.36,.01,.01,0,.05,0,.06,0,.1,0,.21-.02,.32-.04,0,0,.03,0,.03,0,.09-.02,.19-.05,.26-.07,.01,0,.03-.01,.05-.02,.08-.03,.16-.06,.24-.09,0,0,.02,0,.03-.01,.14-.06,.29-.14,.43-.22,0,0,.01,0,.02,0,.07-.04,.13-.08,.19-.12,0,0,0,0,0,0,0,0,.01,0,.02-.01,.06-.04,.11-.08,.16-.11l.03-.02c.05-.04,.1-.08,.14-.11l.03-.02s.09-.07,.14-.11c0,0,.02-.02,.02-.02,.05-.04,.09-.07,.14-.11,.04-.03,.07-.07,.11-.1,0,0,0,0,.01-.01,.03-.03,.07-.06,.1-.09,.11-.11,.23-.23,.35-.35,.52-.52,1.05-1.06,1.64-1.43,.2-.08,.44-.18,.67-.31,.42-.01,.83-.03,1.23-.05,.43-.02,.85-.06,1.31-.11,.53,.15,1.04,.36,1.45,.54,.21,.09,.42,.2,.63,.3,.75,.36,1.61,.78,2.63,.93,.06,0,.12,.02,.19,.02h.03c.06,0,.12,.01,.18,.02,0,0,.01,0,.02,0,.07,0,.13,0,.21,0,.17,0,.35,0,.52-.02,1.75-.13,2.16-.96,2.26-1.32,.26-.96-.34-1.59-.99-1.98,.25-.09,.5-.17,.74-.27,.68-.26,1.38-.56,2.07-.89,.17,.06,.34,.11,.51,.15,.93,.23,1.94,.13,2.95-.3,1.62-.68,2.93-1.77,4.08-2.74,.15-.12,.29-.24,.43-.36,1.28-1.06,2.35-2.38,3.16-3.93,.41-.78,.66-1.58,.85-2.26,.05-.19,.09-.37,.12-.57,.25-.35,.49-.72,.73-1.11,.2,.03,.44,.09,.63,.14,.14,.03,.27,.07,.4,.1,1.04,.23,1.91,.41,2.8,.56,1.67,.28,3.34,.31,4.95,.35,.26,0,.52,.01,.78,.02,.51,.01,1.05,0,1.59-.04h0c1.21-.09,2.52-.32,3.99-.7,.88-.23,1.75-.52,2.59-.87,.06-.02,.11-.05,.16-.08,.05-.03,.16-.08,.26-.12,.15-.06,.32-.13,.5-.23,.19-.11,.7-.39,.76-.93,.04-.33-.11-.64-.41-.89-.02-.01-.04-.03-.06-.04Z"/>
            <path class="cls-23" d="M140.05,13.39c-.1-.07-.21-.13-.33-.17-.54-.35-1.06-.72-1.61-1.12-.8-.57-1.62-1.17-2.53-1.69-1.29-.75-3.27-1.79-5.5-2.25-.2-.04-.41-.08-.62-.1,.23-.47,.41-.93,.55-1.38,.11-.37,.21-.73,.3-1.09,.2-.76,.39-1.47,.72-2.14,.06-.13,.13-.26,.19-.39,.19-.39,.35-.73,.6-1.03,.04-.05,.08-.09,.12-.14,.24-.25,.31-.58,.18-.88-.17-.4-.57-.68-1.19-.84-.09-.02-.18-.04-.27-.04-.26-.01-.52,0-.8,.01-.51,.04-1.01,.13-1.38,.21-1,.21-1.81,.44-2.54,.73-1.58,.63-3.05,1.68-4.24,3.02-1.18,1.33-1.85,2.86-2.4,4.31-.31,.81-.56,1.61-.79,2.37-.11,.36-.23,.76-.4,1.14-.06,.14-.13,.27-.19,.37-.09,.04-.17,.08-.26,.12-.56,.26-1.19,.45-1.86,.65-.06,.02-.11,.03-.17,.05-.15,0-.26,0-.38,.02h-.08s-.02,0-.03,0c-.41,.03-.78,.1-1.15,.16l-.21,.04c-.79,.13-1.66,.21-2.83,.24-1.96,.06-3.96-.16-5.66-.39-.21-.03-.43-.06-.65-.08-1.62-.2-3.29-.42-4.64-1l-.13-.06c-.4-.18-1-.45-1.71-.39-.3,.02-.58,.1-.84,.23-.13,.06-.77,.4-1.14,.82-.83-.37-1.6-.7-2.32-1.01-2.08-.88-4.25-1.63-6.34-2.37l-.11-.04c-1.18-.42-2.26-.73-3.31-.95-.32-.07-.63-.13-.93-.18-.25-.05-.5-.09-.74-.14l-.72-.15c-.06-.01-.12-.02-.19-.03-.16-.04-.37-.09-.59-.13-.04,0-.09-.01-.13-.02-.11-.03-.23-.05-.35-.05-.02,0-.04,0-.06-.01-.19-.06-.37-.12-.56-.18-.17-.05-.33-.1-.5-.15-.11-.05-.21-.09-.32-.13-.4-.15-.84-.27-1.33-.36-.7-.25-1.31-.43-1.89-.55-.04,0-.08-.02-.12-.03-.07-.02-.15-.03-.24-.05-.19-.06-.39-.08-.59-.06-.02,0-.04,0-.06,0-.24-.11-.53-.14-.81-.09-.44,.08-.73,.3-.88,.42h-.02c-.1,.09-.19,.17-.27,.26-.4-.09-.79-.16-1.17-.24-.14-.03-.27-.05-.41-.08-1.41-.27-2.6-.43-3.7-.47-.43-.23-.85-.27-1.14-.26-1.01,.04-1.87,.51-2.43,1.32-.58,.84-.32,1.67-.15,2.22,.2,.62,.25,1.31,.16,2.05-.04,.36-.22,.77-.4,1.2-.39,.92-.83,1.97-.33,3.08,.28,.61,.79,1.07,1.5,1.33,.04,.05,.07,.09,.11,.13l.04,.04c.41,.51,.87,1.03,1.46,1.63,.83,.86,1.84,1.74,3.18,2.77,.85,.65,1.78,1.27,2.77,1.83,.29,.19,.63,.41,.95,.65,.15,.11,.32,.22,.54,.34,.15,.11,.31,.22,.47,.32,.49,.32,1.01,.58,1.51,.83,.17,.08,.33,.16,.49,.25,.13,.07,.25,.13,.38,.2,.29,.15,.6,.31,.91,.47,.02,.18,.02,.36,.03,.51,0,.07,0,.13,0,.19,0,.08,0,.17,0,.25v.12c0,.05,0,.11,0,.16v.37c-.01,.06-.01,.13-.01,.19v.14c0,.07,0,.13,0,.2,0,.04,0,.09,0,.14,0,.08,.02,.15,.03,.23v.02s.01,.07,.02,.1c.02,.13,.05,.25,.09,.37,0,0,0,.02,0,.03,.04,.13,.09,.26,.15,.38,.37,.79,1.29,1.25,2.34,1.18,.2-.02,.4-.05,.61-.1,.08-.02,.14-.04,.2-.06,.02,0,.05-.01,.07-.02,.03-.01,.07-.03,.1-.04,.06-.02,.11-.05,.17-.08,.05-.03,.11-.05,.15-.08,.06-.04,.12-.07,.18-.11,.05-.03,.09-.06,.14-.1,.05-.04,.1-.08,.15-.12,.04-.04,.08-.07,.13-.12,.04-.04,.08-.08,.12-.12,.04-.04,.08-.09,.11-.13,0,0,.01-.02,.01-.02,.03-.04,.05-.07,.08-.11,.03-.05,.06-.1,.1-.16,.02-.03,.04-.07,.06-.1,.03-.06,.06-.12,.09-.19,.01-.03,.02-.05,.04-.08,.04-.09,.07-.19,.09-.28,.05-.2,.07-.41,.07-.61,.22,.06,.43,.13,.65,.19,1.25,.37,2.54,.75,3.89,1.01,.78,.15,1.59,.28,2.43,.37-.04,.03-.07,.06-.11,.08-.03,.02-.05,.04-.07,.06-.05,.04-.09,.08-.13,.12-.03,.02-.05,.05-.08,.07-.04,.04-.08,.08-.12,.12,0,0-.02,.02-.02,.02-.02,.02-.04,.04-.05,.06-.05,.05-.09,.11-.13,.16-.02,.02-.04,.05-.05,.06-.06,.08-.11,.16-.15,.24-.01,.02-.03,.05-.04,.07-.03,.06-.06,.13-.09,.19-.01,.03-.02,.07-.04,.1-.02,.06-.04,.13-.05,.19,0,.04-.01,.07-.02,.1,0,.04-.01,.07-.02,.11,0,.04,0,.07,0,.11,0,.27,.05,.52,.16,.77,.06,.12,.13,.24,.21,.34,.08,.09,.17,.18,.27,.26,.01,.01,.03,.02,.04,.03,.1,.08,.22,.14,.35,.19,.01,0,.02,.01,.03,.01,0,0,.02,0,.03,.01,.12,.05,.26,.08,.37,.1,.02,0,.06,0,.08,.01,.12,.01,.24,.02,.36,.01,.01,0,.05,0,.06,0,.1,0,.21-.02,.32-.04,0,0,.03,0,.03,0,.09-.02,.19-.05,.27-.07,.01,0,.03-.01,.05-.02,.08-.03,.16-.06,.24-.09,0,0,.02,0,.03-.01,.14-.06,.29-.14,.43-.22,0,0,.01,0,.02,0,.07-.04,.13-.08,.19-.12,0,0,0,0,0,0,0,0,.01,0,.02-.01,.06-.04,.11-.08,.16-.11l.03-.02c.05-.04,.1-.07,.14-.11l.03-.02s.09-.07,.14-.11c0,0,.02-.02,.02-.02,.05-.04,.09-.07,.14-.11,.04-.03,.07-.07,.11-.1,0,0,0,0,.01-.01,.03-.03,.07-.06,.1-.09,.11-.11,.23-.23,.35-.35,.52-.52,1.05-1.06,1.64-1.43,.2-.08,.44-.18,.67-.31,.42-.01,.83-.03,1.23-.05,.43-.02,.85-.06,1.31-.11,.53,.15,1.04,.36,1.45,.54,.21,.1,.42,.2,.63,.3,.75,.36,1.61,.78,2.63,.93,.06,0,.12,.02,.19,.02h.03c.06,0,.12,.01,.18,.02,0,0,.01,0,.02,0,.07,0,.13,0,.21,0,.17,0,.35,0,.52-.02,1.75-.13,2.16-.96,2.26-1.32,.26-.96-.34-1.59-.99-1.98,.25-.09,.5-.17,.74-.27,.68-.26,1.38-.56,2.07-.89,.17,.06,.34,.11,.51,.15,.93,.23,1.94,.13,2.95-.3,1.62-.68,2.93-1.77,4.08-2.74,.15-.12,.29-.24,.43-.36,1.28-1.06,2.35-2.38,3.16-3.93,.41-.78,.66-1.58,.85-2.26,.05-.19,.09-.37,.12-.57,.25-.35,.49-.72,.73-1.11,.2,.03,.44,.09,.63,.14,.14,.03,.27,.07,.4,.1,1.04,.23,1.91,.41,2.8,.56,1.67,.28,3.34,.31,4.95,.35,.26,0,.52,.01,.78,.02,.51,.01,1.05,0,1.59-.04h0c1.21-.09,2.52-.32,3.99-.7,.88-.23,1.75-.52,2.59-.87,.06-.02,.11-.05,.16-.08,.05-.03,.16-.08,.26-.12,.15-.06,.33-.13,.51-.23,.19-.11,.7-.39,.76-.93,.04-.33-.1-.65-.41-.89-.02-.01-.04-.03-.06-.04Z"/>
            <path class="cls-20" d="M139.91,13.26c-.1-.07-.21-.13-.33-.17-.54-.35-1.06-.72-1.61-1.12-.8-.57-1.62-1.17-2.53-1.69-1.29-.75-3.27-1.79-5.5-2.25-.2-.04-.41-.08-.62-.1,.23-.47,.41-.93,.55-1.38,.11-.37,.21-.73,.3-1.09,.2-.76,.39-1.47,.72-2.14,.07-.13,.13-.26,.19-.39,.19-.39,.35-.73,.6-1.03,.04-.05,.08-.09,.13-.14,.24-.25,.31-.58,.18-.88-.17-.4-.57-.68-1.19-.84-.09-.02-.18-.04-.27-.04-.26-.01-.52,0-.8,.01-.51,.04-1.01,.13-1.38,.21-1,.21-1.81,.44-2.54,.73-1.58,.63-3.05,1.68-4.24,3.02-1.18,1.33-1.85,2.86-2.4,4.31-.31,.81-.56,1.61-.79,2.37-.11,.36-.23,.76-.4,1.14-.06,.14-.13,.27-.19,.37-.09,.04-.17,.08-.26,.12-.56,.26-1.19,.45-1.86,.65-.06,.02-.11,.03-.17,.05-.15,0-.26,0-.38,.02h-.08s-.02,0-.03,0c-.41,.03-.78,.1-1.15,.16l-.21,.04c-.79,.13-1.66,.21-2.83,.24-1.96,.06-3.96-.16-5.66-.39-.21-.03-.43-.06-.65-.08-1.62-.2-3.29-.42-4.64-1l-.13-.06c-.4-.18-1-.45-1.71-.39-.3,.02-.58,.1-.84,.23-.13,.06-.77,.4-1.14,.82-.83-.37-1.6-.7-2.32-1.01-2.08-.87-4.25-1.63-6.34-2.37l-.11-.04c-1.18-.42-2.26-.73-3.31-.95-.32-.07-.63-.13-.93-.18-.25-.05-.5-.09-.74-.14l-.72-.15c-.06-.01-.12-.02-.2-.03-.16-.04-.37-.09-.59-.13-.04,0-.09-.01-.13-.02-.11-.03-.23-.05-.35-.05-.02,0-.04,0-.06,0-.19-.06-.37-.12-.56-.18-.17-.05-.33-.1-.5-.15-.11-.05-.21-.09-.32-.13-.4-.15-.84-.27-1.33-.36-.7-.25-1.31-.43-1.89-.55-.04,0-.08-.02-.12-.03-.07-.02-.15-.03-.24-.05-.19-.06-.39-.09-.59-.06-.02,0-.04,0-.06,0-.24-.11-.53-.14-.81-.09-.44,.08-.73,.3-.88,.42h-.02c-.1,.09-.19,.17-.27,.26-.4-.09-.79-.16-1.17-.24-.14-.03-.27-.05-.41-.08-1.41-.27-2.6-.43-3.7-.47-.43-.23-.85-.27-1.14-.26-1.01,.04-1.87,.51-2.43,1.32-.58,.84-.32,1.67-.15,2.22,.2,.62,.25,1.31,.16,2.05-.04,.36-.22,.77-.4,1.2-.39,.92-.83,1.97-.33,3.08,.28,.61,.79,1.07,1.5,1.33,.04,.05,.07,.09,.11,.13l.04,.04c.41,.51,.87,1.03,1.46,1.63,.83,.86,1.84,1.74,3.18,2.77,.85,.65,1.78,1.27,2.77,1.83,.29,.19,.63,.41,.95,.65,.15,.11,.32,.22,.54,.34,.16,.11,.31,.22,.47,.32,.49,.32,1.01,.58,1.51,.83,.17,.08,.33,.16,.49,.25,.13,.07,.25,.13,.38,.2,.29,.15,.6,.31,.91,.47,.02,.18,.02,.36,.03,.51,0,.07,0,.13,0,.19,0,.08,0,.17,0,.25v.12c0,.05,0,.11,0,.16v.37c-.01,.06-.01,.13-.01,.19v.14c0,.07,0,.13,0,.2,0,.05,0,.09,0,.14,0,.08,.02,.15,.03,.23v.02s.01,.07,.02,.1c.02,.13,.05,.25,.09,.37,0,0,0,.02,0,.03,.04,.13,.09,.26,.15,.38,.37,.79,1.29,1.25,2.34,1.18,.2-.02,.4-.05,.61-.1,.08-.02,.14-.04,.2-.06,.02,0,.05-.02,.07-.02,.03-.01,.07-.03,.1-.04,.06-.02,.11-.05,.17-.08,.05-.03,.11-.05,.15-.08,.06-.03,.12-.07,.18-.11,.05-.03,.09-.06,.14-.1,.05-.04,.1-.08,.15-.12,.04-.04,.08-.07,.12-.12,.04-.04,.08-.08,.12-.12,.04-.04,.07-.09,.11-.13,0,0,.01-.02,.01-.02,.03-.04,.05-.07,.08-.11,.03-.05,.06-.1,.1-.16,.02-.03,.04-.07,.06-.1,.03-.06,.06-.12,.09-.19,.01-.03,.02-.05,.04-.08,.04-.09,.07-.19,.09-.28,.05-.2,.07-.41,.07-.61,.22,.06,.43,.13,.65,.19,1.25,.37,2.54,.75,3.89,1.01,.78,.15,1.59,.28,2.43,.37-.03,.03-.07,.06-.11,.08-.03,.02-.05,.04-.07,.06-.05,.04-.09,.08-.13,.12-.03,.02-.05,.05-.08,.07-.04,.04-.08,.08-.12,.12,0,0-.02,.02-.02,.02-.02,.02-.04,.04-.05,.06-.05,.05-.09,.11-.13,.16-.02,.02-.04,.05-.05,.07-.06,.08-.11,.16-.15,.24-.01,.02-.03,.05-.04,.07-.03,.06-.06,.13-.09,.19-.01,.03-.02,.07-.04,.1-.02,.06-.04,.13-.05,.19,0,.04-.01,.07-.02,.1,0,.04-.01,.07-.02,.11,0,.04,0,.07,0,.11,0,.27,.05,.52,.16,.77,.06,.12,.13,.24,.21,.34,.08,.09,.17,.18,.27,.26,.01,.01,.03,.02,.04,.03,.1,.08,.22,.14,.35,.19,.01,0,.02,.01,.03,.01,0,0,.02,0,.03,.01,.12,.05,.26,.08,.37,.1,.02,0,.06,0,.08,.01,.12,.01,.24,.02,.36,.01,.01,0,.05,0,.06,0,.1,0,.21-.02,.32-.04,0,0,.03,0,.03,0,.09-.02,.19-.05,.26-.07,.01,0,.03-.01,.05-.02,.08-.03,.16-.06,.24-.09,0,0,.02,0,.03-.01,.14-.06,.29-.14,.43-.22,0,0,.01,0,.02,0,.06-.04,.13-.08,.19-.12,0,0,0,0,0,0,0,0,.01,0,.02-.01,.06-.04,.11-.08,.16-.11l.03-.02c.05-.04,.1-.07,.14-.11l.03-.02s.09-.07,.14-.11c0,0,.02-.02,.02-.02,.05-.04,.09-.07,.14-.11,.04-.03,.07-.07,.11-.1,0,0,0,0,.01-.01,.04-.03,.07-.06,.1-.09,.11-.11,.23-.23,.35-.35,.52-.52,1.05-1.06,1.64-1.43,.2-.08,.44-.18,.67-.31,.42-.01,.83-.03,1.23-.05,.43-.02,.85-.06,1.31-.11,.53,.15,1.04,.36,1.45,.54,.21,.09,.42,.2,.63,.3,.75,.36,1.61,.78,2.63,.93,.06,0,.12,.02,.19,.02h.03c.06,0,.12,.01,.18,.02,0,0,.01,0,.02,0,.07,0,.13,0,.21,0,.17,0,.35,0,.52-.02,1.75-.13,2.16-.96,2.26-1.32,.26-.96-.34-1.59-.99-1.98,.25-.09,.5-.17,.74-.27,.68-.26,1.38-.56,2.07-.89,.17,.06,.34,.11,.51,.15,.93,.23,1.94,.13,2.95-.3,1.62-.68,2.93-1.77,4.08-2.74,.15-.12,.29-.24,.43-.36,1.28-1.06,2.35-2.38,3.16-3.93,.41-.78,.66-1.58,.85-2.26,.05-.19,.09-.37,.12-.57,.25-.35,.49-.72,.73-1.11,.2,.03,.44,.09,.63,.14,.14,.03,.27,.07,.4,.1,1.04,.23,1.91,.41,2.8,.56,1.67,.28,3.34,.31,4.95,.35,.26,0,.52,.01,.78,.02,.51,.01,1.05,0,1.59-.04h0c1.21-.09,2.52-.32,3.99-.7,.88-.23,1.75-.52,2.59-.87,.06-.02,.11-.05,.16-.08,.05-.03,.16-.08,.26-.12,.15-.06,.33-.13,.51-.23,.19-.11,.7-.39,.76-.93,.04-.33-.1-.64-.41-.89-.02-.01-.04-.03-.06-.04Z"/>
          </g>
          <path class="cls-12" d="M139.91,13.26c-.1-.07-.21-.13-.33-.17-.54-.35-1.06-.72-1.61-1.12-.8-.57-1.62-1.17-2.53-1.69-1.29-.75-3.27-1.79-5.5-2.25-.2-.04-.41-.08-.62-.1,.23-.47,.41-.93,.55-1.38,.11-.37,.21-.73,.3-1.09,.2-.76,.39-1.47,.72-2.14,.07-.13,.13-.26,.19-.39,.19-.39,.35-.73,.6-1.03,.04-.05,.08-.09,.13-.14,.24-.25,.31-.58,.18-.88-.17-.4-.57-.68-1.19-.84-.09-.02-.18-.04-.27-.04-.26-.01-.52,0-.8,.01-.51,.04-1.01,.13-1.38,.21-1,.21-1.81,.44-2.54,.73-1.58,.63-3.05,1.68-4.24,3.02-1.18,1.33-1.85,2.86-2.4,4.31-.31,.81-.56,1.61-.79,2.37-.11,.36-.23,.76-.4,1.14-.06,.14-.13,.27-.19,.37-.09,.04-.17,.08-.26,.12-.56,.26-1.19,.45-1.86,.65-.06,.02-.11,.03-.17,.05-.15,0-.26,0-.38,.02h-.08s-.02,0-.03,0c-.41,.03-.78,.1-1.15,.16l-.21,.04c-.79,.13-1.66,.21-2.83,.24-1.96,.06-3.96-.16-5.66-.39-.21-.03-.43-.06-.65-.08-1.62-.2-3.29-.42-4.64-1l-.13-.06c-.4-.18-1-.45-1.71-.39-.3,.02-.58,.1-.84,.23-.13,.06-.77,.4-1.14,.82-.83-.37-1.6-.7-2.32-1.01-2.08-.87-4.25-1.63-6.34-2.37l-.11-.04c-1.18-.42-2.26-.73-3.31-.95-.32-.07-.63-.13-.93-.18-.25-.05-.5-.09-.74-.14l-.72-.15c-.06-.01-.12-.02-.2-.03-.16-.04-.37-.09-.59-.13-.04,0-.09-.01-.13-.02-.11-.03-.23-.05-.35-.05-.02,0-.04,0-.06,0-.19-.06-.37-.12-.56-.18-.17-.05-.33-.1-.5-.15-.11-.05-.21-.09-.32-.13-.4-.15-.84-.27-1.33-.36-.7-.25-1.31-.43-1.89-.55-.04,0-.08-.02-.12-.03-.07-.02-.15-.03-.24-.05-.19-.06-.39-.09-.59-.06-.02,0-.04,0-.06,0-.24-.11-.53-.14-.81-.09-.44,.08-.73,.3-.88,.42h-.02c-.1,.09-.19,.17-.27,.26-.4-.09-.79-.16-1.17-.24-.14-.03-.27-.05-.41-.08-1.41-.27-2.6-.43-3.7-.47-.43-.23-.85-.27-1.14-.26-1.01,.04-1.87,.51-2.43,1.32-.58,.84-.32,1.67-.15,2.22,.2,.62,.25,1.31,.16,2.05-.04,.36-.22,.77-.4,1.2-.39,.92-.83,1.97-.33,3.08,.28,.61,.79,1.07,1.5,1.33,.04,.05,.07,.09,.11,.13l.04,.04c.41,.51,.87,1.03,1.46,1.63,.83,.86,1.84,1.74,3.18,2.77,.85,.65,1.78,1.27,2.77,1.83,.29,.19,.63,.41,.95,.65,.15,.11,.32,.22,.54,.34,.16,.11,.31,.22,.47,.32,.49,.32,1.01,.58,1.51,.83,.17,.08,.33,.16,.49,.25,.13,.07,.25,.13,.38,.2,.29,.15,.6,.31,.91,.47,.02,.18,.02,.36,.03,.51,0,.07,0,.13,0,.19,0,.08,0,.17,0,.25v.12c0,.05,0,.11,0,.16v.37c-.01,.06-.01,.13-.01,.19v.14c0,.07,0,.13,0,.2,0,.05,0,.09,0,.14,0,.08,.02,.15,.03,.23v.02s.01,.07,.02,.1c.02,.13,.05,.25,.09,.37,0,0,0,.02,0,.03,.04,.13,.09,.26,.15,.38,.37,.79,1.29,1.25,2.34,1.18,.2-.02,.4-.05,.61-.1,.08-.02,.14-.04,.2-.06,.02,0,.05-.02,.07-.02,.03-.01,.07-.03,.1-.04,.06-.02,.11-.05,.17-.08,.05-.03,.11-.05,.15-.08,.06-.03,.12-.07,.18-.11,.05-.03,.09-.06,.14-.1,.05-.04,.1-.08,.15-.12,.04-.04,.08-.07,.12-.12,.04-.04,.08-.08,.12-.12,.04-.04,.07-.09,.11-.13,0,0,.01-.02,.01-.02,.03-.04,.05-.07,.08-.11,.03-.05,.06-.1,.1-.16,.02-.03,.04-.07,.06-.1,.03-.06,.06-.12,.09-.19,.01-.03,.02-.05,.04-.08,.04-.09,.07-.19,.09-.28,.05-.2,.07-.41,.07-.61,.22,.06,.43,.13,.65,.19,1.25,.37,2.54,.75,3.89,1.01,.78,.15,1.59,.28,2.43,.37-.03,.03-.07,.06-.11,.08-.03,.02-.05,.04-.07,.06-.05,.04-.09,.08-.13,.12-.03,.02-.05,.05-.08,.07-.04,.04-.08,.08-.12,.12,0,0-.02,.02-.02,.02-.02,.02-.04,.04-.05,.06-.05,.05-.09,.11-.13,.16-.02,.02-.04,.05-.05,.07-.06,.08-.11,.16-.15,.24-.01,.02-.03,.05-.04,.07-.03,.06-.06,.13-.09,.19-.01,.03-.02,.07-.04,.1-.02,.06-.04,.13-.05,.19,0,.04-.01,.07-.02,.1,0,.04-.01,.07-.02,.11,0,.04,0,.07,0,.11,0,.27,.05,.52,.16,.77,.06,.12,.13,.24,.21,.34,.08,.09,.17,.18,.27,.26,.01,.01,.03,.02,.04,.03,.1,.08,.22,.14,.35,.19,.01,0,.02,.01,.03,.01,0,0,.02,0,.03,.01,.12,.05,.26,.08,.37,.1,.02,0,.06,0,.08,.01,.12,.01,.24,.02,.36,.01,.01,0,.05,0,.06,0,.1,0,.21-.02,.32-.04,0,0,.03,0,.03,0,.09-.02,.19-.05,.26-.07,.01,0,.03-.01,.05-.02,.08-.03,.16-.06,.24-.09,0,0,.02,0,.03-.01,.14-.06,.29-.14,.43-.22,0,0,.01,0,.02,0,.06-.04,.13-.08,.19-.12,0,0,0,0,0,0,0,0,.01,0,.02-.01,.06-.04,.11-.08,.16-.11l.03-.02c.05-.04,.1-.07,.14-.11l.03-.02s.09-.07,.14-.11c0,0,.02-.02,.02-.02,.05-.04,.09-.07,.14-.11,.04-.03,.07-.07,.11-.1,0,0,0,0,.01-.01,.04-.03,.07-.06,.1-.09,.11-.11,.23-.23,.35-.35,.52-.52,1.05-1.06,1.64-1.43,.2-.08,.44-.18,.67-.31,.42-.01,.83-.03,1.23-.05,.43-.02,.85-.06,1.31-.11,.53,.15,1.04,.36,1.45,.54,.21,.09,.42,.2,.63,.3,.75,.36,1.61,.78,2.63,.93,.06,0,.12,.02,.19,.02h.03c.06,0,.12,.01,.18,.02,0,0,.01,0,.02,0,.07,0,.13,0,.21,0,.17,0,.35,0,.52-.02,1.75-.13,2.16-.96,2.26-1.32,.26-.96-.34-1.59-.99-1.98,.25-.09,.5-.17,.74-.27,.68-.26,1.38-.56,2.07-.89,.17,.06,.34,.11,.51,.15,.93,.23,1.94,.13,2.95-.3,1.62-.68,2.93-1.77,4.08-2.74,.15-.12,.29-.24,.43-.36,1.28-1.06,2.35-2.38,3.16-3.93,.41-.78,.66-1.58,.85-2.26,.05-.19,.09-.37,.12-.57,.25-.35,.49-.72,.73-1.11,.2,.03,.44,.09,.63,.14,.14,.03,.27,.07,.4,.1,1.04,.23,1.91,.41,2.8,.56,1.67,.28,3.34,.31,4.95,.35,.26,0,.52,.01,.78,.02,.51,.01,1.05,0,1.59-.04h0c1.21-.09,2.52-.32,3.99-.7,.88-.23,1.75-.52,2.59-.87,.06-.02,.11-.05,.16-.08,.05-.03,.16-.08,.26-.12,.15-.06,.33-.13,.51-.23,.19-.11,.7-.39,.76-.93,.04-.33-.1-.64-.41-.89-.02-.01-.04-.03-.06-.04Z"/>
          <g>
            <g>
              <path class="cls-2" d="M119.27,13.31c.93-2.01,1.62-4.14,2.88-6.04,1.25-1.89,2.82-3.85,5.24-4.87,.01,0,0-.02-.01-.01-1.1,.42-1.96,1.08-2.85,1.75-1.03,.77-1.67,1.82-2.37,2.79-1.4,1.95-2.13,4.24-2.95,6.37-.01,.03,.05,.03,.06,0Z"/>
              <path class="cls-2" d="M125.53,9.44c-.47,.24-.97,.42-1.44,.67-.5,.26-.97,.55-1.42,.86-.9,.62-1.72,1.31-2.36,2.12-.05,.07,.08,.09,.12,.04,.74-.73,1.54-1.41,2.4-2.05,.84-.62,1.82-1.07,2.71-1.62,.01,0,0-.02-.01-.01Z"/>
              <path class="cls-2" d="M134.24,13.82c-2.25,.29-4.56,.27-6.83,.43-2.46,.17-4.95,.17-7.41-.01-.03,0-.05,.03-.02,.04,2.4,.29,4.8,.4,7.22,.25,2.35-.15,4.74-.21,7.04-.68,.02,0,.02-.02,0-.02Z"/>
              <path class="cls-2" d="M131.57,11.6c-1.95,.12-3.84,.46-5.72,.88-.99,.22-1.98,.45-2.97,.67-1.02,.23-2.09,.25-3.11,.48-.06,.01-.05,.07,.01,.07,1.97-.03,3.87-.54,5.75-.97,2-.46,3.98-.9,6.04-1.11,.01,0,.02-.02,0-.02Z"/>
            </g>
            <g>
              <path class="cls-2" d="M111.95,23.83s-.03-.03-.04-.01c-.05,.05-.11,.09-.19,.11,.01-.01,.02-.03,.04-.04,0,0,0,0,0,0-.01,.02-.03,.03-.04,.05,0,0,0,0,0,0-.05,0-.1,.02-.12,.07,0,0,0,0,.01,0,.02,0,.03-.01,.05-.02,.05-.01,.1-.01,.15-.03,.07-.02,.12-.07,.15-.12Z"/>
              <path class="cls-2" d="M109.17,24.64s0,0,0,0c0,0,0,0,0,0Z"/>
              <path class="cls-6" d="M118.28,16.93c-.47,.49-.89,1.01-1.32,1.52-.46,.55-.93,1.07-1.49,1.56-.26,.23-.49,.47-.76,.69-.24,.19-.52,.36-.74,.56-.54,.49-1.12,.92-1.71,1.37-.5,.38-1.1,.66-1.64,1-.63,.39-1.31,.68-2.01,.99-.36,.15-.71,.32-1.09,.44-.28,.09-.32,.27,.05,.33,.1,.02,.05,.11-.03,.11-.09,0-.27-.03-.42-.09,.32,.16,.67,.28,1.02,.39,.39,.12,.8,.28,1.21,.3,.58,.03,1.08-.1,1.54-.3-.45,.18-1.14,.33-1.56,.04-.04-.03-.02-.09,.04-.09,.14,0,.27,.02,.4,.04,0-.01,.02-.03,.04-.03,.02,0,.04,0,.05-.01-.07-.03-.15-.05-.22-.09-.04-.02-.05-.08,0-.09,.45-.09,1.03,0,1.48-.15-.29,.03-.58,.04-.85-.06-.06-.02-.04-.09,.02-.1,.43-.04,.86-.09,1.27-.17-.32,0-.65,.02-.95-.06-.04,0-.05-.06-.02-.08,.28-.22,.61-.25,.98-.29,0-.02,.02-.04,.05-.04,.07,0,.13-.01,.2-.03-.08-.03-.16-.05-.24-.08-.05-.01-.04-.08,0-.09,.55-.13,1.16-.15,1.65-.41-.35,.01-.71,.07-1.06,.02-.05,0-.06-.05-.04-.08,.17-.21,.55-.23,.82-.29,.25-.06,.62-.13,.86-.26-.23,.03-.45,.08-.69,.02-.03,0-.07-.04-.04-.07,.18-.23,.52-.32,.82-.41,.37-.11,.75-.23,1.09-.4-.27,.03-.54,.07-.81,.07-.06,0-.09-.06-.04-.09,.42-.26,1.02-.27,1.41-.56-.24,.04-.47,.1-.72,.07-.06,0-.06-.06-.02-.09,.15-.1,.34-.16,.51-.23-.09,0-.18,0-.27-.03-.04,0-.06-.04-.04-.07,.32-.5,1.09-.56,1.61-.88-.15,.05-.3,.1-.46,.09-.04,0-.05-.03-.05-.06,.06-.38,.59-.43,.87-.67-.06,0-.12,0-.19,0-.03,0-.05-.03-.05-.06,.05-.21,.19-.36,.36-.52,.08-.08,.17-.14,.27-.2,.07-.04,.37-.17,.27-.22-.04-.02-.04-.05-.02-.08,.06-.08,.15-.14,.22-.2,0,0,0,0,0,0-.03,0-.06-.03-.05-.06,.08-.27,.34-.51,.61-.7,.08-.21,.16-.42,.24-.64,.14-.36,.19-.74,.3-1.11,.05-.18,.11-.38,.11-.57-.25,.4-.43,.84-.76,1.19Z"/>
              <path class="cls-2" d="M111.22,25.36c-.35,.14-.98,.06-1.34,.04-.5-.03-1-.05-1.5-.08-.04,0-.1,.05-.04,.07,.47,.14,1,.15,1.5,.16,.42,0,1.02,.02,1.38-.18,0,0,0-.01,0,0Z"/>
              <path class="cls-2" d="M111.53,25.09c-.86,.11-1.77,.02-2.62-.1-.03,0-.06,.03-.03,.04,.81,.19,1.82,.21,2.65,.07,.02,0,.01-.02,0-.02Z"/>
              <path class="cls-2" d="M111.49,24.21c-.52,.02-1.04,0-1.57,.04-.05,0-.07,.06-.01,.06,.58,.04,1.17,.02,1.74-.02,.39-.03,1.03,0,1.35-.21,0,0,0-.02-.01-.01"/>
              <path class="cls-2" d="M113.3,23.55c-.3,.15-.84,.12-1.18,.12-.52,0-1.05,.11-1.57,.09-.05,0-.1,.06-.03,.07,.52,.08,1.07-.08,1.6-.09,.34,0,.91-.01,1.2-.18,.01,0,0-.02-.01-.01Z"/>
              <path class="cls-2" d="M114.83,22.6c-.77,.2-1.62,.34-2.42,.43-.05,0-.06,.06,0,.06,.36,0,.72-.08,1.07-.14,.46-.08,.92-.17,1.37-.29,.04-.01,.03-.06-.02-.05Z"/>
              <path class="cls-2" d="M115.21,22.05c-.12,.13-.3,.09-.46,.14-.19,.05-.38,.09-.57,.13-.38,.08-.78,.12-1.16,.2-.05,0-.04,.07,0,.06,.47-.06,.95-.14,1.41-.25,.18-.04,.36-.1,.54-.14,.11-.02,.2-.06,.26-.14,0-.01-.01-.02-.02,0Z"/>
              <path class="cls-2" d="M116.53,20.77c-.2,.19-.66,.26-.94,.35-.36,.11-.73,.2-1.1,.29-.03,0-.02,.04,.01,.04,.46-.09,.9-.21,1.33-.35,.22-.07,.56-.14,.7-.31,0-.01-.01-.01-.02,0Z"/>
              <path class="cls-2" d="M116.68,20.2c-.21,.07-.41,.15-.61,.23-.25,.1-.53,.15-.77,.27-.03,.01,0,.04,.03,.03,.23-.09,.47-.14,.69-.23,.22-.1,.44-.2,.68-.28,.01,0,0-.02-.01-.02Z"/>
              <path class="cls-2" d="M117.35,19.07c-.22,.15-.5,.2-.74,.33-.04,.02,0,.06,.03,.04,.25-.12,.52-.19,.74-.35,.02-.02-.01-.03-.03-.02Z"/>
            </g>
            <g>
              <path class="cls-2" d="M98.56,13.31s-.02-.03-.03-.01c-.51,.46-1.22,.69-1.75,1.11-.04,.03,0,.08,.05,.06,.65-.23,1.36-.65,1.73-1.16Z"/>
              <path class="cls-2" d="M99.05,13.58c-.51,.31-1.12,.57-1.53,.96-.04,.03,.02,.06,.06,.04,.49-.33,1.02-.63,1.5-.98,.02-.01,0-.02-.02-.01Z"/>
              <path class="cls-2" d="M102.11,14.24c-.58,.5-1.34,.74-2.04,1.08-.04,.02-.01,.06,.03,.05,.74-.22,1.53-.61,2.03-1.12,0,0,0-.01-.02,0Z"/>
              <path class="cls-2" d="M102.53,14.48c-.35,.28-.75,.5-1.16,.71-.05,.02,0,.07,.04,.05,.43-.2,.81-.44,1.14-.75,.01-.01,0-.02-.02-.01Z"/>
              <path class="cls-2" d="M105.01,14.59c-.45,.39-.99,.68-1.49,1.02-.03,.02,.01,.05,.04,.03,.54-.27,1.08-.63,1.47-1.04,0,0-.01-.02-.02,0Z"/>
              <path class="cls-2" d="M104.42,14.5c-.38,.39-.97,.68-1.47,.95-.03,.02,0,.05,.03,.03,.52-.25,1.11-.57,1.46-.98,0,0-.01-.01-.02,0Z"/>
              <path class="cls-2" d="M107.78,14.85c-.6,.29-1.13,.7-1.7,1.03-.03,.02-.01,.05,.02,.04,.66-.22,1.14-.71,1.7-1.05,.02-.01,0-.03-.02-.02Z"/>
              <path class="cls-2" d="M108.85,14.96c-.45,.32-.96,.58-1.44,.87-.03,.02-.01,.05,.02,.04,.24-.07,.43-.21,.62-.34,.28-.18,.56-.35,.81-.56,.01,0,0-.02-.02-.01Z"/>
              <path class="cls-2" d="M110.12,15.02c-.11,.11-.27,.2-.41,.29-.14,.09-.27,.19-.41,.28-.03,.02,.01,.04,.03,.03,.15-.08,.28-.18,.42-.28,.14-.1,.28-.19,.39-.31,0-.01-.01-.01-.02,0Z"/>
              <path class="cls-2" d="M111.58,14.87s-.02-.03-.04-.01c-.02,0-.03,.02-.05,.03-.01,0-.01,.02,0,.01,0,0,.04,0,.06,0-.15,.11-.32,.23-.5,.32-.21,.12-.41,.3-.55,.47-.02,.03,.03,.04,.05,.03,.2-.13,.36-.3,.55-.44,.18-.13,.34-.23,.47-.4Z"/>
              <path class="cls-2" d="M112.38,14.87c-.27,.18-.53,.36-.79,.56-.03,.02,.01,.05,.04,.03,.29-.16,.54-.37,.8-.55,.04-.03-.02-.06-.05-.03Z"/>
            </g>
            <g>
              <path class="cls-4" d="M72.07,8.61c-.61,.57-.45,1.29,.08,1.85,.07,.07,0,.15-.09,.16-.36,.07-.7,.18-.97,.37,.32,0,.64-.08,.96-.06,.08,0,.16,.01,.24,.02-.22-.02-.58-.06-.69-.01,.22-.09,1.01-.24,1.23-.09-.45-.3-.81-.67-.92-1.11-.17-.71,.79-1.34,1.51-1.55,.19-.06,.37-.1,.56-.13-.05,0-.11-.02-.16-.03-.02,0-.05,0-.07,.01-.56,.09-1.28,.21-1.67,.58Z"/>
              <path class="cls-4" d="M67.95,18.32c.92,.88,1.95,1.73,3.04,2.48,.13,.09,.25,.18,.38,.26,1.49,.67,3.11,1.17,4.8,1.34,1.1,.11,2.2-.01,3.28-.2,1.04-.18,2.1-.46,3-.93,1.95-1.02,3.48-2.72,3.55-4.65,.04-1-.36-1.91-1.37-2.53-.89-.55-2.04-.88-3.16-.68-.02,0-.02-.01,0-.02,1.84-.38,4.01,.55,4.7,1.98,0-.03-.01-.06-.02-.09-.09-.44-.19-.89-.35-1.32-.31-.86-.82-1.71-1.44-2.44-.17-.2-.36-.39-.55-.57,.2,.29,.38,.58,.57,.88,.34,.55,.73,1.08,.71,1.72,0,.07-.06,.13-.15,.11-.75-.12-1.38-.5-2.16-.49-.66,0-1.36,.05-1.88,.4,.92,.07,1.95,.12,2.48,.83,.69,.93,.72,2.05,.26,3.06-.97,2.15-3.66,3.89-6.56,3.49-1.4-.19-2.67-.77-3.7-1.56-1.01-.77-1.96-1.7-2.21-2.84-.15-.68-.06-1.33-.05-2.02,0-.74-.09-1.47-.28-2.19-.32-1.23-1.22-2.2-2.17-3.14,.09,.17,.18,.33,.27,.5,.01,0,.02,.02,.03,.04,.02,.04,.04,.08,.06,.13,.05,.1,.1,.2,.15,.3,.53,1,1.29,2.07,.81,3.14-.12,.78-.63,1.46-1.6,1.82-.09,.03-.18-.04-.17-.12,.09-.51,.48-.94,.57-1.45,.11-.61,.09-1.3-.2-1.88-.45-.87-1.37-1.49-1.87-2.33-.35-.59-.17-1.29-.28-1.93-.11-.64-.88-.19-1.06,.01-.54,.61-.28,1.58-.2,2.27,.08,.7,.05,1.39-.09,2.09-.18,.92-.91,2-.58,2.94,.43,1.26,2.19,1.2,3.48,1.01,.08-.01,.08,.08,.01,.09-.69,.17-1.6,.31-2.37,.18,.11,.12,.25,.23,.31,.29"/>
              <path class="cls-4" d="M67.95,18.32c.92,.88,1.95,1.73,3.04,2.48,.13,.09,.25,.18,.38,.26,1.49,.67,3.11,1.17,4.8,1.34,1.1,.11,2.2-.01,3.28-.2,1.04-.18,2.1-.46,3-.93,1.95-1.02,3.48-2.72,3.55-4.65,.03-.93-.31-1.79-1.16-2.4,1.93,1.38,.46,3.56-.7,4.87-.26,.29-.54,.57-.84,.82-1.49,1.26-3.5,2.05-5.72,2.16-3.61,.17-7.61-2.08-9.1-4.75-.22-.39-.24-.7,.16-1.01,.53-.41,1.1-.72,1.41-1.29,.55-1,.4-1.91,0-2.81,.06,.35,.05,.71-.11,1.07-.04,.72-.31,1.43-.95,1.9-.49,.36-1.16,.58-1.82,.46-.37-.07-1.11-.37-.79-.79,.18-.24,.46-.37,.74-.53,.46-.26,.77-.67,.86-1.13,.18-.94-.29-1.87-.88-2.66-.46-.61-1.26-1.26-1.28-2.02,0-.31,.04-.63,.18-.92-.37,.43-.48,.98-.37,1.53,.15,.76,.72,1.43,.76,2.21,.04,.69-.57,1.24-.96,1.81-.3,.45-.53,.95-.12,1.41,.19,.21,.37,.4,.47,.65,.02,.05,0,.12-.08,.13-.39,.1-.79-.02-1.09-.25,.61,.91,2.15,.84,3.31,.67,.08-.01,.08,.08,.01,.09"/>
              <path class="cls-3" d="M84.83,11.68s0,.02,0,.02c.48,.59,.89,1.26,1.13,1.93,2.58,.02,4.92,.89,7.19,1.89,3.08,1.35,6.27,2.58,9.78,3.01,1.93,.24,3.95,.24,5.84-.22,1.66-.4,3.28-.95,4.82-1.6,2.67-1.12,5.12-2.55,7.18-4.33-.11-.04-.23-.03-.34,.01-.23,.08-.45,.16-.68,.25-.34,.14-.68,.28-1.01,.43-.63,.28-1.25,.54-1.92,.75-1.45,.45-2.89,.99-4.37,1.34-1.38,.33-2.82,.51-4.25,.58-1.43,.07-2.93,.11-4.35-.07-.79-.1-1.58-.23-2.37-.35-.7-.11-1.37-.26-2.05-.45-.7-.2-1.42-.41-2.12-.65,2.74,1.25,5.44,2.54,8.21,3.76,.12,.05-8.59-3.75-12.84-5.52-2.14-.89-4.21-1.52-6.41-2.29-1.11-.39-2.25-.76-3.42-1-.39-.08-.76-.19-1.14-.29-.16-.04-.31-.08-.47-.12-.24-.05-.51-.08-.73-.16,0,0,0,0,0,0,.7,.26,1.39,.56,1.99,.94,.93,.59,1.68,1.36,2.34,2.15Z"/>
              <path class="cls-5" d="M105.96,17.32c4.23-.11,8.04-1.54,11.59-3.37-4.96,1.98-10.43,3.13-15.8,2.31,.7,.32,1.4,.65,2.11,.97,.7,.08,1.41,.11,2.11,.09Z"/>
              <path class="cls-5" d="M84.82,11.7c.23,.28,.44,.59,.63,.9,1.31,.08,2.61,.27,3.87,.57,2.92,.68,5.66,1.72,8.47,2.63,1.91,.62,3.94,1.2,5.99,1.43-.64-.28-1.43-.62-2.3-1-.99-.16-1.97-.39-2.95-.69-3.26-1.01-6.2-2.91-9.36-4.09-1.93-.72-4.96-1.74-7.04-2.19,.65,.51,2.17,1.81,2.68,2.42,0,0,0,.02,0,.02Z"/>
              <path class="cls-2" d="M93.04,19.11c-1.86,.24-4.35,.62-5.89-.49,.38,1.02,1.31,1.92,2.16,2.68,.96,.86,2.07,1.67,3.42,2.1,1.48,.48,3.25,.51,4.64-.24,1.16-.62,2.18-1.76,1.9-2.95-.61-2.61-4.1-1.38-6.23-1.11Z"/>
            </g>
            <path class="cls-5" d="M74.86,12.12c-.02,.17-.27,.29-.56,.26-.28-.02-.5-.18-.47-.35,.02-.17,.27-.29,.56-.26,.28,.02,.5,.18,.47,.35Z"/>
            <path class="cls-5" d="M126.63,2.36c-1.92,.61-3.3,1.73-4.28,3.2-.48,.72-.81,1.47-1.16,2.23-.33,.71-.7,1.47-.89,2.22,0,.04,.05,.04,.07,.01,.4-.63,.66-1.35,.99-2.01,.36-.72,.79-1.43,1.26-2.11,.99-1.46,2.31-2.59,4.04-3.48,.04-.02,.02-.07-.03-.06Z"/>
            <path class="cls-5" d="M127.13,3.19c-.98,.22-1.83,.8-2.48,1.41-.77,.72-1.47,1.52-2.06,2.34-.02,.03,.02,.05,.05,.03,.66-.6,1.2-1.28,1.85-1.9,.78-.73,1.67-1.28,2.7-1.74,.09-.04,.05-.16-.05-.14Z"/>
            <path class="cls-5" d="M126.26,4.39c-2.37,.55-3.19,2.79-4.37,4.3-.02,.03,.03,.06,.05,.03,.65-.71,1.31-1.42,1.94-2.14,.69-.8,1.53-1.45,2.44-2.08,.05-.04,.01-.12-.06-.1Z"/>
            <path class="cls-5" d="M127.27,4.92c-1.92,.77-3.08,2.47-4.12,3.91-.02,.03,.02,.05,.05,.03,1.35-1.31,2.68-2.58,4.2-3.77,.1-.08,0-.22-.13-.17Z"/>
            <path class="cls-5" d="M125.88,7.33c-.8,.19-1.39,.69-1.91,1.2-.65,.64-1.19,1.33-1.91,1.94-.03,.03,.01,.07,.05,.05,.67-.48,1.24-1.04,1.9-1.53,.65-.49,1.34-.97,1.96-1.48,.07-.06,.03-.2-.09-.17Z"/>
            <path class="cls-5" d="M122.29,10.74s.02,.11,.07,.07c.59-.42,1.19-.82,1.83-1.19,.58-.34,1.16-.69,1.63-1.14,.09-.08-.05-.21-.17-.16"/>
            <path class="cls-5" d="M122.92,11.42s-.01,.06,.03,.05c.5-.14,.96-.33,1.42-.54,.46-.21,1-.4,1.38-.7,.09-.07,.02-.18-.09-.17-.43,.04-.78,.26-1.13,.46"/>
            <path class="cls-5" d="M125.54,10.9c.11-.06,.02-.23-.11-.2-.73,.16-1.36,.65-2.03,.93"/>
            <path class="cls-5" d="M129.45,10.34c-.93-.11-1.93,.16-2.79,.44-.98,.32-1.94,.82-2.86,1.26-.08,.04-.02,.14,.06,.11,.92-.37,1.81-.69,2.78-.96,.94-.27,1.9-.45,2.84-.69,.1-.03,.05-.14-.03-.15Z"/>
            <path class="cls-5" d="M128.4,11.26c-.73,.07-1.44,.21-2.14,.4-.75,.2-1.51,.37-2.22,.67-.07,.03-.02,.12,.05,.09,.73-.28,1.47-.44,2.26-.52,.74-.07,1.45-.18,2.1-.49,.1-.05,.06-.16-.06-.15Z"/>
            <path class="cls-5" d="M131.84,11.79c-.98-.07-1.92,.13-2.86,.34-1.09,.24-2.21,.41-3.3,.66-.06,.01-.05,.09,.02,.08,1.05-.12,2.08-.29,3.13-.4,1.02-.1,2.03-.3,3.02-.53,.1-.02,.11-.15,0-.16Z"/>
            <path class="cls-5" d="M130.59,12.92c-.7,0-1.41,.17-2.1,.28-.86,.13-1.71,.15-2.57,.26-.05,0-.05,.07,0,.07,.86-.02,1.71-.11,2.57-.12,.68,0,1.51-.06,2.12-.32,.09-.04,.08-.17-.03-.17Z"/>
            <path class="cls-5" d="M133.21,13.43c-1.16-.06-2.34,.04-3.5,.1-1.24,.07-2.48,.11-3.72,.25-.06,0-.06,.09,0,.09,2.4-.08,4.86,.17,7.22-.32,.08-.02,.08-.11,0-.12Z"/>
            <path class="cls-5" d="M133.94,14.46c-1.07,0-2.15,.09-3.21,.14-1.32,.07-2.63,.11-3.96,.13-.03,0-.04,.04,0,.04,2.42,.27,4.79,.24,7.18-.18,.09-.02,.09-.13,0-.13Z"/>
            <path class="cls-5" d="M98.67,19.08c-.41-.31-.99-.48-1.53-.56-1.51-.24-3.09-.15-4.62-.07-.02,0-.02,.03,0,.03,.6,.1,1.23,.04,1.84,.02,.65-.02,1.26,.05,1.89,.14,.51,.07,1,.18,1.48,.33,.12,.04,.24,.08,.35,.13-1.12,0-2.24,.12-3.36,.12-.01,0-.01,.01,0,.02,1.13,.13,2.4,.24,3.53,.08,.05,0,.09-.04,.1-.08,.03,.02,.06,.03,.08,.05,.15,.08,.24,.17,.31,.27-.78,.04-1.54,.3-2.32,.37-.02,0-.02,.03,0,.02,.79,0,1.62-.08,2.41-.18,0,0,.01,0,.02,0,.05,.12,.08,.26,.12,.4,0,.03,.06,.03,.06,0,.07-.45,.05-.76-.37-1.08Z"/>
            <path class="cls-5" d="M98.87,20.25c-.19,.02-.37,.23-.54,.31-.21,.09-.5,.12-.74,.15-.04,0-.04,.06,0,.06,.3,.02,.56-.06,.84-.12,.2-.04,.56-.13,.54-.34,0-.04-.06-.07-.11-.06Z"/>
            <path class="cls-5" d="M98.61,20.69c-.1,.03-.16,.11-.25,.15-.09,.05-.2,.09-.31,.11-.03,0-.03,.04,0,.04,.11,0,.21-.01,.32-.05,.11-.04,.26-.08,.32-.17,.03-.05-.02-.11-.09-.08Z"/>
            <path class="cls-5" d="M98.29,21.09s-.01,0-.02,0c-.06-.03-.13,.04-.06,.08,.05,.03,.11,.03,.15,0,.05-.04-.01-.1-.07-.07Z"/>
          </g>
        </g>
        <g>
          <path class="cls-24" d="M26.54,41.29c-1.46,2.18-2.88,3.95-4.28,5.3-1.4,1.36-2.75,2.04-4.06,2.04-.66,0-1.16-.16-1.49-.47-.57-.51-.85-.99-.85-1.44s.15-.78,.44-1c2.95-2.13,6.22-8.38,9.81-18.75l1.73-4.92c1.99-5.62,3.68-9.11,5.07-10.46,.49-.37,1-.56,1.52-.56s.99,.08,1.38,.25c.39,.17,.73,.38,1.03,.63,.66,.59,1,1.27,1,2.05,0,.29-.14,.71-.41,1.26-.27,.55-.59,1.26-.94,2.14l-3.72,10.34c4.75-.86,8.66-2.82,11.75-5.89,2.89-2.87,4.34-5.82,4.34-8.85,0-2.87-1.29-4.76-3.87-5.65-.88-.31-1.9-.47-3.06-.47s-2.35,.15-3.56,.44c-1.21,.29-2.4,.67-3.57,1.14-2.36,.96-4.3,2.08-5.8,3.37-.39,.37-.82,.56-1.29,.56s-.91-.1-1.32-.29c-.41-.19-.77-.45-1.08-.76-.72-.68-1.08-1.38-1.08-2.09s.25-1.35,.76-1.92c.51-.57,1.18-1.08,2.02-1.54,.84-.46,1.81-.87,2.9-1.23,1.09-.36,2.22-.67,3.37-.92,2.34-.49,4.67-.73,6.99-.73s4.43,.29,6.36,.86c1.92,.58,3.51,1.35,4.76,2.33,2.52,1.95,3.78,4.43,3.78,7.44v.47c-.18,3.69-1.57,6.94-4.19,9.76-2.29,2.44-5.23,4.37-8.85,5.77-3.26,1.29-6.35,1.93-9.26,1.93h-.76c-.25,0-.5-.02-.73-.06-1.76,4.43-3.36,7.74-4.82,9.92Z"/>
          <path class="cls-24" d="M38.27,45.72c.08-1.7,.36-3.33,.85-4.88,.49-1.55,1.14-3.06,1.96-4.51,.82-1.45,1.78-2.83,2.89-4.13,1.1-1.3,2.3-2.44,3.59-3.41,2.79-2.09,5.61-3.13,8.47-3.13,3.34,0,5.57,1.38,6.68,4.13,.39,.94,.58,2.05,.56,3.33-.02,1.28-.26,2.46-.73,3.54s-1.12,2.07-1.95,2.96c-.83,.89-1.82,1.68-2.96,2.39s-2.39,1.3-3.74,1.79c-2.77,.98-5.74,1.48-8.91,1.52-.08,.27-.13,.68-.15,1.23-.02,.55,.04,1.16,.18,1.83,.14,.67,.37,1.27,.7,1.8,.7,1.17,1.72,1.76,3.05,1.76,2.27,0,4.47-.66,6.62-1.99,.76-.45,1.38-.91,1.86-1.39s.89-.72,1.25-.72,.66,.21,.92,.63c.26,.42,.4,.89,.4,1.42,0,1.04-.29,1.93-.88,2.7-2.46,2.46-6.12,3.69-10.99,3.69-2.87,0-5.18-.86-6.91-2.58-1.95-1.95-2.87-4.61-2.75-7.97Zm17.11-16.17c-2.05,0-4.02,1.41-5.92,4.22-1.6,2.42-2.89,5.29-3.87,8.61,3.26-.33,6.09-1.62,8.5-3.87,2.21-2.11,3.31-4.13,3.31-6.06s-.67-2.9-2.02-2.9Z"/>
          <path class="cls-24" d="M77.09,41.49c.51,0,.76,.33,.76,1,0,.88-.4,1.79-1.2,2.72-1.17,1.37-2.74,2.05-4.72,2.05-2.27,0-3.82-.92-4.66-2.75-.31-.64-.47-1.43-.47-2.34s.16-1.94,.48-3.06c.32-1.12,.72-2.3,1.2-3.54,.48-1.24,1-2.49,1.57-3.76l1.55-3.69c1.13-2.75,1.7-4.57,1.7-5.45s-.09-1.46-.28-1.74c-.19-.28-.39-.5-.6-.66l-.59-.41c-.2-.14-.29-.38-.29-.72s.13-.67,.4-.98c.26-.31,.61-.59,1.04-.82,.88-.45,1.9-.67,3.08-.67,2.87,0,4.31,.75,4.31,2.26,0,1.76-.46,3.76-1.38,6.02-.92,2.26-1.7,4.08-2.34,5.46l-1.76,4.04c-1.29,2.97-1.93,5.11-1.93,6.42,0,.86,.43,1.29,1.29,1.29s1.47-.11,1.9-.32c.43-.21,.74-.32,.94-.32Z"/>
          <path class="cls-24" d="M82.7,52.33c-.84,.61-1.49,.91-1.95,.91s-.84-.06-1.14-.19-.58-.29-.83-.48c-.59-.49-.88-.93-.88-1.33s.22-.77,.64-1.1l1.79-1.44c3.2-2.64,5.85-5.5,7.94-8.58-1.7-4.77-2.48-8.73-2.34-11.89,.08-1.56,.75-2.91,2.02-4.04,1.17-1.02,2.42-1.52,3.75-1.52,.39,0,.64,.14,.76,.41,.12,.27,.18,.67,.18,1.19s-.02,1.06-.06,1.64c-.04,.58-.04,1.18-.01,1.82,.03,.63,.07,1.32,.13,2.07,.19,1.99,.38,3.54,.56,4.66l.97-1.61c2.23-3.53,4.82-6.34,7.79-8.41,1.68-1.17,3.12-1.76,4.34-1.76,1.09,0,1.94,.16,2.55,.47,1.13,.59,1.51,1.18,1.14,1.79-.06,.1-.18,.18-.35,.23l-.73,.35c-3.09,1.35-7.02,4.65-11.81,9.9-1,1.09-1.87,2.14-2.61,3.13l1.03,3.43c1.27,4.1,2.77,6.15,4.51,6.15,.76,0,1.39-.12,1.88-.35l1.05-.47c.21-.1,.42-.15,.62-.15,.41,0,.62,.21,.62,.62,0,1.72-.88,3.16-2.64,4.34-1.17,.78-2.5,1.17-3.98,1.17-2.87,0-5.47-2.96-7.79-8.88-2.46,3.61-4.83,6.26-7.12,7.94Z"/>
          <path class="cls-24" d="M109.77,38.01c.06-1.39,.29-2.71,.69-3.98,.4-1.27,.93-2.49,1.6-3.68,.67-1.19,1.45-2.31,2.35-3.37,.9-1.06,1.87-1.99,2.93-2.78,2.28-1.7,4.58-2.56,6.9-2.56,2.72,0,4.54,1.12,5.45,3.37,.32,.76,.47,1.67,.45,2.71-.02,1.04-.21,2.01-.6,2.89s-.91,1.69-1.59,2.41c-.68,.72-1.48,1.37-2.41,1.95s-1.95,1.06-3.05,1.46c-2.26,.8-4.68,1.21-7.26,1.24-.06,.22-.1,.56-.12,1-.02,.45,.03,.94,.14,1.49,.11,.55,.3,1.04,.57,1.47,.57,.96,1.4,1.43,2.48,1.43,1.85,0,3.65-.54,5.4-1.62,.62-.37,1.13-.74,1.52-1.13s.73-.59,1.02-.59,.54,.17,.75,.51c.21,.34,.32,.73,.32,1.16,0,.84-.24,1.58-.72,2.2-2.01,2.01-4.99,3.01-8.96,3.01-2.34,0-4.22-.7-5.64-2.1-1.59-1.59-2.34-3.76-2.25-6.5Zm13.95-13.18c-1.67,0-3.28,1.15-4.82,3.44-1.31,1.97-2.36,4.32-3.15,7.02,2.66-.27,4.97-1.32,6.93-3.15,1.8-1.72,2.7-3.37,2.7-4.94s-.55-2.36-1.65-2.36Z"/>
          <path class="cls-24" d="M129.37,45.79c0-.51,.11-.98,.33-1.42,.22-.43,.5-.8,.82-1.1,.69-.64,1.41-.96,2.17-.96,.66,0,.98,.34,.98,1.01,0,1.71,.57,2.9,1.7,3.57,.41,.25,.84,.37,1.28,.37s.82-.05,1.13-.15c.31-.1,.6-.25,.86-.47,.59-.48,.89-1.04,.89-1.7s-.15-1.26-.44-1.81c-.3-.55-.66-1.13-1.11-1.74l-1.4-1.97c-1.97-2.62-2.95-5.05-2.95-7.26,0-1.84,.78-3.5,2.34-5,1.77-1.69,4.04-2.53,6.82-2.53,2.43,0,4.32,.6,5.69,1.8,1.12,.97,1.67,2.08,1.67,3.32s-.49,2.33-1.48,3.1c-.89,.69-1.77,.94-2.66,.76-.39-.08-.7-.28-.91-.6-.21-.32-.25-.69-.12-1.1,.13-.41,.2-.84,.2-1.28s-.08-.85-.25-1.23c-.16-.38-.39-.7-.66-.96-.57-.54-1.18-.81-1.81-.81s-1.15,.07-1.56,.21c-.41,.14-.77,.34-1.08,.6-.64,.59-.96,1.32-.96,2.18s.15,1.6,.44,2.23c.3,.62,.66,1.25,1.1,1.87,.43,.62,.91,1.26,1.42,1.9,.51,.64,.98,1.31,1.4,2.02,1.03,1.66,1.55,3.11,1.55,4.37s-.26,2.31-.79,3.15c-.53,.85-1.21,1.57-2.04,2.18-1.79,1.33-3.79,1.99-6.01,1.99s-3.79-.51-5.02-1.53c-1.02-.85-1.53-1.86-1.53-3.03Z"/>
        </g>
        <g>
          <path class="cls-11" d="M75.34,7.96c-2.55,.17-4.53,1.68-4.43,3.38,.1,1.69,2.26,2.93,4.81,2.75,2.55-.17,4.53-1.68,4.43-3.38-.1-1.69-2.25-2.93-4.8-2.75Z"/>
          <path class="cls-14" d="M75.47,8.21c-2.18,.15-3.87,1.46-3.78,2.93,.09,1.47,1.93,2.54,4.11,2.4,2.18-.15,3.87-1.46,3.78-2.93-.09-1.47-1.93-2.54-4.11-2.39Z"/>
          <path class="cls-18" d="M76.16,8.57c-1.47-.02-2.67,.77-2.67,1.76,0,.99,1.18,1.81,2.65,1.83,1.47,.02,2.67-.77,2.67-1.76,0-.99-1.18-1.81-2.65-1.83Z"/>
          <path class="cls-8" d="M77.1,10.74c-.65,0-1.18,.34-1.18,.78,0,.44,.52,.8,1.17,.81,.65,0,1.18-.34,1.18-.78,0-.44-.52-.8-1.17-.8Z"/>
        </g>
      </g>
    </g>
  </g>
</svg>